<svg width="180" height="180" viewBox="0 0 180 180" fill="none" xmlns="http://www.w3.org/2000/svg">
<path d="M90 4.62573e-06C40.2947 4.62573e-06 0 40.3 0 90.0067C0 139.7 40.2947 180.007 90 180.007C139.705 180.007 180 139.7 180 90.0067C180 40.3 139.705 4.62573e-06 90 4.62573e-06Z" fill="#010201"/>
<path d="M110.128 128.267L87.8075 95.8373L84.6291 91.2212L58.7287 53.5893H69.8699L90.8163 84.0226L93.9943 88.6392L121.27 128.267H110.128ZM125.875 125.099L97.7624 84.2562L94.5837 79.6375L74.4737 50.4215L72.807 48H48.0957L54.1224 56.7579L80.8612 95.6085L84.0397 100.223L105.524 131.438L107.191 133.857H131.902L125.875 125.099Z" fill="white"/>
<path d="M84.6299 91.2211L87.8085 95.8374L84.0404 100.223L55.1293 133.857H48L80.8619 95.6086L84.6299 91.2211Z" fill="white"/>
<path d="M128.927 48L97.7626 84.2562L93.9944 88.6392L90.8164 84.0226L94.5839 79.6375L115.695 55.0655L121.798 48H128.927Z" fill="white"/>
</svg>
