<svg width="180" height="180" viewBox="0 0 180 180" fill="none" xmlns="http://www.w3.org/2000/svg">
<path d="M90 4.62573e-06C40.2947 4.62573e-06 0 40.3 0 90.0067C0 139.7 40.2947 180.007 90 180.007C139.705 180.007 180 139.7 180 90.0067C180 40.3 139.705 4.62573e-06 90 4.62573e-06Z" fill="#010201"/>
<path d="M39.5 58.1745V90.531L55.0773 83.8617V66.4698L72.8699 75.967L89.2484 68.2844L54.064 50.3033L39.5 58.1745Z" fill="white"/>
<path d="M64.7852 45.0481L82.1535 53.9326L90.4488 49.9027L98.3435 53.9326L116.725 46.4621L90.4488 31.0968L64.7852 45.0481Z" fill="white"/>
<path d="M141 58.1745L127.449 51.3167L109.468 59.5884L121.581 66.6819L39.5 103.469V123.689L52.65 130.146L70.2304 121.662L58.7065 115.181L141 77.5931V58.1745Z" fill="white"/>
<path d="M140.999 122.675V90.1304L125.823 96.5875V114.781L107.629 105.071L91.4629 112.966L125.823 131.371L140.999 122.675Z" fill="white"/>
<path d="M90.1219 132.125L81.2139 128.143L64.9531 135.873L90.1219 149.352L116.87 135.873L100.821 128.143L90.1219 132.125Z" fill="white"/>
</svg>
