<svg width="1230" height="382" viewBox="0 0 1230 382" fill="none" xmlns="http://www.w3.org/2000/svg">
<path d="M10.6075 232.161C6.85067 232.161 4.41979 229.729 3.31484 224.864C2.20989 222.432 1.65742 218.01 1.65742 211.598C1.65742 192.362 1.43643 175.226 0.994453 160.191C0.331484 138.523 0 115.638 0 91.5377V18.5729C0 16.5829 0.883957 14.7035 2.65187 12.9347C4.64078 10.9447 6.62968 9.94976 8.61859 9.94976L46.7393 10.2814C53.8109 10.5025 63.0925 10.6131 74.5839 10.6131C91.1581 10.6131 103.975 10.5025 113.036 10.2814L125.301 9.94976C138.56 9.50754 149.499 9.28643 158.118 9.28643C172.04 9.28643 185.3 11.2764 197.896 15.2563C212.702 19.6784 224.746 27.3065 234.028 38.1407C244.414 49.8593 249.607 65.6683 249.607 85.5678C249.607 119.176 241.099 143.497 224.083 158.533C209.056 172.683 186.626 179.759 156.792 179.759H111.379C111.6 184.844 111.71 190.261 111.71 196.01C111.71 198 111.6 200.432 111.379 203.307C111.379 205.96 111.379 209.608 111.379 214.251C111.379 221.548 109.832 226.191 106.738 228.181C104.307 230.171 99.7767 231.166 93.147 231.166C83.4235 231.166 76.6833 231.276 72.9265 231.497C57.6782 231.497 45.5238 231.719 36.4632 232.161H10.6075ZM129.279 139.96C133.92 139.96 137.345 135.538 139.555 126.693C141.323 120.724 142.649 111.879 143.533 100.161C143.975 93.7487 144.196 86.5628 144.196 78.603V74.9548C144.196 71.4171 143.643 66.1105 142.538 59.0352C141.654 55.0553 140.66 51.9598 139.555 49.7488C138.45 47.3166 137.013 45.3266 135.245 43.7789C133.478 41.7889 131.489 40.794 129.279 40.794C128.174 40.794 127.179 41.2362 126.295 42.1206C125.632 43.005 124.969 44.1105 124.307 45.4372C121.876 49.4171 119.666 58.2613 117.677 71.9698C117.014 75.9498 116.461 81.9196 116.019 89.8794C114.914 102.04 114.362 118.291 114.362 138.633C114.362 138.633 114.472 138.744 114.693 138.965C114.914 139.186 115.356 139.407 116.019 139.628L119.997 139.96H129.279Z" fill="black"/>
<path d="M288.016 232.824C286.469 232.824 285.032 232.271 283.706 231.166C282.38 229.839 281.386 228.181 280.723 226.191C279.839 222.211 279.176 217.789 278.734 212.925C278.513 211.377 278.403 209.276 278.403 206.623V202.312L278.734 161.186C278.734 147.256 279.066 133.548 279.728 120.06V15.2563C279.728 13.0452 281.165 11.9397 284.038 11.9397C299.286 11.9397 310.667 11.8292 318.181 11.608H351.329C351.992 11.608 352.544 11.4975 352.986 11.2764C353.428 11.0553 353.981 10.9447 354.644 10.9447C357.517 10.5025 361.495 10.392 366.577 10.6131C370.334 10.6131 374.312 10.9447 378.511 11.608C379.837 12.4925 380.831 12.7136 381.494 12.2714C381.936 12.2714 382.82 12.0503 384.146 11.608C387.461 11.608 390.002 11.8292 391.77 12.2714C393.759 12.7136 395.306 13.7085 396.411 15.2563C397.516 17.2462 398.4 19.6784 399.063 22.5528C399.284 24.7638 399.394 29.407 399.394 36.4824V106.131C399.173 107.899 399.063 111.879 399.063 118.07C399.063 124.704 398.842 129.899 398.4 133.658L398.068 148.583C397.847 151.899 397.737 156.1 397.737 161.186L397.405 166.492V187.719C397.405 200.985 396.853 212.261 395.748 221.548C395.748 224.643 394.974 227.739 393.428 230.834C389.45 230.834 383.704 231.055 376.19 231.497C372.655 231.497 370.334 231.719 369.229 232.161H364.92C363.373 232.161 362.599 231.94 362.599 231.497C360.832 231.055 359.837 230.834 359.616 230.834L356.964 232.161H326.468C326.247 232.382 324.479 232.492 321.164 232.492H296.303L288.016 232.824Z" fill="black"/>
<path d="M533.469 240.121C516.232 240.121 500.763 236.141 487.061 228.181C471.592 220.663 458.885 208.281 448.941 191.035C437.891 171.578 432.367 148.583 432.367 122.05C432.367 103.256 435.681 86.3417 442.311 71.3065C448.941 56.2714 458.443 43.5578 470.819 33.1658C482.973 22.995 497.227 15.2563 513.58 9.94976C529.933 4.64322 547.723 1.98994 566.949 1.98994C595.236 1.98994 624.406 9.17587 654.461 23.5477L641.533 79.9296C639.986 79.4874 638.108 78.9347 635.898 78.2713C633.909 77.608 631.588 76.9447 628.937 76.2814C616.782 73.1859 607.832 71.196 602.086 70.3116C596.783 69.4271 592.473 68.9849 589.158 68.9849C575.236 68.9849 564.629 72.7437 557.336 80.2613C548.717 88.8844 544.408 103.367 544.408 123.709C544.408 142.281 547.17 155.548 552.695 163.508C557.336 171.025 564.187 174.784 573.247 174.784C578.993 174.784 585.623 173.236 593.136 170.141C593.136 166.603 592.915 161.296 592.473 154.221L592.142 146.925C591.921 141.839 591.81 134.322 591.81 124.372V115.417C591.81 113.427 592.142 112.101 592.805 111.437C593.468 110.553 594.683 110.111 596.451 110.111C597.114 110.332 598.992 110.442 602.086 110.442H637.224C647.61 110.442 654.461 110.332 657.776 110.111C663.742 110.111 667.61 110.221 669.378 110.442C672.25 111.106 674.129 112.211 675.013 113.759C676.118 115.085 676.67 117.296 676.67 120.392C676.67 121.497 676.781 122.492 677.002 123.377V176.774C676.781 177.658 676.56 178.653 676.339 179.759C676.118 180.864 676.007 182.08 676.007 183.407V185.065C676.007 198.995 675.786 208.724 675.344 214.251C674.902 223.317 674.129 229.065 673.024 231.497C667.278 231.497 662.969 231.719 660.096 232.161L652.803 232.492H651.809C649.82 232.492 648.715 232.382 648.494 232.161C648.273 231.94 648.052 231.829 647.831 231.829C647.831 231.608 647.831 231.497 647.831 231.497H646.837C646.616 231.719 646.395 231.94 646.174 232.161C646.174 232.382 646.174 232.492 646.174 232.492H604.075C603.412 232.714 602.528 232.824 601.423 232.824C600.539 232.824 599.766 232.161 599.103 230.834C597.556 226.854 596.672 222.1 596.451 216.573C596.009 213.92 595.567 210.05 595.125 204.965C593.136 216.241 586.175 224.975 574.242 231.166C563.413 237.136 549.822 240.121 533.469 240.121Z" fill="black"/>
<path d="M807.979 240.121C790.742 240.121 775.273 236.141 761.572 228.181C746.102 220.663 733.395 208.281 723.451 191.035C712.401 171.578 706.877 148.583 706.877 122.05C706.877 103.256 710.192 86.3417 716.821 71.3065C723.451 56.2714 732.953 43.5578 745.329 33.1658C757.483 22.995 771.737 15.2563 788.09 9.94976C804.443 4.64322 822.233 1.98994 841.459 1.98994C869.746 1.98994 898.916 9.17587 928.971 23.5477L916.043 79.9296C914.496 79.4874 912.618 78.9347 910.408 78.2713C908.419 77.608 906.099 76.9447 903.447 76.2814C891.292 73.1859 882.342 71.196 876.596 70.3116C871.293 69.4271 866.983 68.9849 863.669 68.9849C849.746 68.9849 839.139 72.7437 831.846 80.2613C823.228 88.8844 818.918 103.367 818.918 123.709C818.918 142.281 821.681 155.548 827.205 163.508C831.846 171.025 838.697 174.784 847.757 174.784C853.503 174.784 860.133 173.236 867.646 170.141C867.646 166.603 867.425 161.296 866.983 154.221L866.652 146.925C866.431 141.839 866.321 134.322 866.321 124.372V115.417C866.321 113.427 866.652 112.101 867.315 111.437C867.978 110.553 869.193 110.111 870.961 110.111C871.624 110.332 873.503 110.442 876.596 110.442H911.734C922.12 110.442 928.971 110.332 932.286 110.111C938.253 110.111 942.12 110.221 943.888 110.442C946.761 111.106 948.639 112.211 949.523 113.759C950.628 115.085 951.18 117.296 951.18 120.392C951.18 121.497 951.291 122.492 951.512 123.377V176.774C951.291 177.658 951.07 178.653 950.849 179.759C950.628 180.864 950.517 182.08 950.517 183.407V185.065C950.517 198.995 950.296 208.724 949.854 214.251C949.412 223.317 948.639 229.065 947.534 231.497C941.788 231.497 937.479 231.719 934.606 232.161L927.314 232.492H926.319C924.33 232.492 923.225 232.382 923.004 232.161C922.783 231.94 922.562 231.829 922.341 231.829C922.341 231.608 922.341 231.497 922.341 231.497H921.347C921.126 231.719 920.905 231.94 920.684 232.161C920.684 232.382 920.684 232.492 920.684 232.492H878.585C877.922 232.714 877.039 232.824 875.934 232.824C875.05 232.824 874.276 232.161 873.613 230.834C872.066 226.854 871.182 222.1 870.961 216.573C870.519 213.92 870.077 210.05 869.635 204.965C867.646 216.241 860.685 224.975 848.752 231.166C837.923 237.136 824.333 240.121 807.979 240.121Z" fill="black"/>
<path d="M1118.95 262.01C1118.95 262.01 1118.73 262.01 1118.29 262.01C1118.07 262.01 1117.85 262.121 1117.63 262.342L1116.63 262.673C1115.97 262.673 1115.64 262.452 1115.64 262.01C1114.75 261.568 1114.2 260.905 1113.98 260.02C1106.25 258.693 1101.27 257.588 1099.06 256.704L1087.46 253.387H1085.8C1084.7 253.387 1083.82 253.166 1083.15 252.724C1081.16 252.724 1079.51 252.503 1078.18 252.06C1076.41 251.839 1073.54 251.065 1069.56 249.739C1065.58 248.412 1062.71 247.417 1060.94 246.754C1057.41 245.648 1052.32 243.769 1045.69 241.116C1042.6 239.789 1040.28 238.905 1038.73 238.462L1031.11 233.819C1029.34 232.492 1028.46 231.166 1028.46 229.839C1028.46 225.638 1029.45 221.216 1031.44 216.573C1032.1 215.025 1032.99 213.146 1034.09 210.935C1035.42 208.724 1036.63 206.181 1037.74 203.307C1038.18 201.98 1039.4 199.99 1041.39 197.337C1046.69 188.492 1049.56 183.628 1050 182.744C1050.89 180.312 1051.33 178.1 1051.33 176.111C1051.33 172.794 1049.56 169.367 1046.03 165.829C1042.71 162.513 1041.05 159.307 1041.05 156.211C1039.95 156.211 1039.4 156.322 1039.4 156.543H1038.4C1037.96 156.1 1037.74 155.658 1037.74 155.216C1030.67 146.372 1023.49 135.648 1016.19 123.045C1006.91 108.452 999.398 95.1859 993.652 83.2462C991.884 80.593 989.785 75.8392 987.354 68.9849C984.481 63.0151 982.05 56.9347 980.061 50.7437C977.63 43.8894 976.415 39.4673 976.415 37.4774C976.415 35.2663 978.846 32.392 983.707 28.8543C985.696 27.5276 988.017 26.201 990.668 24.8744C993.32 23.5477 995.309 22.5528 996.635 21.8894C997.74 21.6683 1002.38 20.4523 1010.56 18.2412L1015.2 16.5829C1016.08 15.9196 1017.08 15.5879 1018.18 15.5879C1019.51 15.5879 1021.61 15.1457 1024.48 14.2613C1030.89 12.9347 1034.65 12.0503 1035.75 11.608L1047.68 8.95478C1054.31 6.74372 1058.18 5.52764 1059.29 5.30652L1059.95 4.97487H1061.61C1066.25 4.97487 1069.34 6.0804 1070.89 8.29145C1072.21 9.61809 1074.42 12.7136 1077.52 17.5779C1077.96 18.9045 1078.73 20.4523 1079.84 22.2211C1081.16 23.9899 1082.05 25.0955 1082.49 25.5377L1085.14 29.1859L1087.46 31.8392C1088.35 32.9447 1089.23 34.2714 1090.11 35.8191C1091 37.3668 1091.99 39.0251 1093.1 40.794C1098.84 50.9648 1103.26 58.1508 1106.36 62.3518C1108.35 65.2261 1110 66.6633 1111.33 66.6633C1111.99 66.6633 1113.1 65.4472 1114.64 63.0151C1116.63 59.9196 1120.28 52.8442 1125.58 41.7889C1128.46 34.7136 1131.88 26.6432 1135.86 17.5779C1137.85 13.598 1138.95 11.1658 1139.17 10.2814C1140.06 6.30151 1141.05 3.7588 1142.16 2.65327C1143.26 0.884424 1145.25 0 1148.12 0C1155.19 0 1164.48 1.43719 1175.97 4.31156C1187.24 7.62814 1198.07 11.9397 1208.45 17.2462C1219.06 22.995 1226.24 28.3015 1230 33.1658C1230 39.1357 1228.56 44.6633 1225.69 49.7488L1195.19 117.075L1165.36 184.734L1164.03 185.065C1163.81 185.065 1163.48 185.286 1163.04 185.729C1148.45 214.251 1135.08 239.9 1122.93 262.673C1122.49 263.558 1121.16 264 1118.95 264V262.01Z" fill="black"/>
<path d="M224.281 362.594C224.073 362.448 223.885 362.135 223.719 361.656C223.573 361.177 223.458 360.594 223.375 359.906C223.292 359.198 223.219 358.427 223.156 357.594C223.115 356.74 223.083 355.885 223.062 355.031C223.042 354.156 223.031 353.302 223.031 352.469C223.031 351.615 223.031 350.833 223.031 350.125V347.562C222.802 347.208 222.594 346.833 222.406 346.438C222.24 346.021 222.156 345.656 222.156 345.344C222.156 345.177 222.177 345.01 222.219 344.844C222.281 344.677 222.354 344.51 222.438 344.344C222.521 344.156 222.615 343.979 222.719 343.812C222.802 341.75 222.865 340.094 222.906 338.844C222.948 337.573 222.979 336.542 223 335.75C223.021 334.938 223.031 334.292 223.031 333.812C223.031 333.312 223.031 332.802 223.031 332.281C223.031 331.427 223.052 330.562 223.094 329.688C223.135 328.812 223.24 327.958 223.406 327.125C223.573 326.292 223.823 325.51 224.156 324.781C224.49 324.031 224.958 323.365 225.562 322.781C225.729 322.615 225.969 322.49 226.281 322.406C226.615 322.302 226.927 322.25 227.219 322.25C227.719 322.25 228.177 322.375 228.594 322.625C229.031 322.521 229.521 322.333 230.062 322.062C230.625 321.792 231.271 321.521 232 321.25C232.729 320.958 233.573 320.708 234.531 320.5C235.49 320.271 236.604 320.156 237.875 320.156C243.354 320.156 247.458 321.104 250.188 323C252.917 324.875 254.281 327.635 254.281 331.281C254.281 332.99 254.125 334.458 253.812 335.688C253.521 336.896 253.177 337.906 252.781 338.719C252.385 339.531 251.979 340.167 251.562 340.625C251.167 341.083 250.875 341.406 250.688 341.594C250.229 342.052 249.604 342.531 248.812 343.031C248.021 343.51 247.115 343.979 246.094 344.438C245.073 344.896 243.958 345.344 242.75 345.781C241.562 346.198 240.344 346.583 239.094 346.938C237.844 347.271 236.594 347.552 235.344 347.781C234.094 348.01 232.906 348.156 231.781 348.219C231.49 348.24 231.156 348.24 230.781 348.219C230.427 348.198 230.083 348.167 229.75 348.125C229.375 348.083 228.99 348.031 228.594 347.969C228.677 349.344 228.781 350.594 228.906 351.719C229.052 352.823 229.188 353.896 229.312 354.938C229.458 355.958 229.583 356.99 229.688 358.031C229.792 359.052 229.844 360.167 229.844 361.375C229.844 361.792 229.74 362.125 229.531 362.375C229.344 362.625 229.104 362.812 228.812 362.938C228.521 363.062 228.208 363.135 227.875 363.156C227.542 363.198 227.24 363.219 226.969 363.219C226.573 363.219 226.115 363.167 225.594 363.062C225.073 362.979 224.635 362.823 224.281 362.594ZM228.469 341.75C228.969 341.792 229.427 341.854 229.844 341.938C230.26 342 230.667 342.073 231.062 342.156C231.458 342.219 231.844 342.281 232.219 342.344C232.594 342.406 232.99 342.438 233.406 342.438C233.99 342.438 234.677 342.385 235.469 342.281C236.26 342.156 237.094 342 237.969 341.812C238.865 341.625 239.75 341.406 240.625 341.156C241.521 340.885 242.354 340.604 243.125 340.312C243.917 340.021 244.604 339.729 245.188 339.438C245.771 339.125 246.198 338.823 246.469 338.531C247.073 337.865 247.604 337.042 248.062 336.062C248.542 335.083 248.781 334.042 248.781 332.938C248.781 331.708 248.583 330.625 248.188 329.688C247.812 328.729 247.208 327.927 246.375 327.281C245.542 326.635 244.469 326.146 243.156 325.812C241.844 325.479 240.26 325.312 238.406 325.312C237.615 325.312 236.792 325.354 235.938 325.438C235.083 325.5 234.271 325.635 233.5 325.844C232.75 326.031 232.083 326.292 231.5 326.625C230.938 326.958 230.562 327.375 230.375 327.875C230.354 327.938 230.312 328.094 230.25 328.344C230.188 328.573 230.083 328.844 229.938 329.156C229.812 329.448 229.635 329.74 229.406 330.031C229.177 330.323 228.885 330.562 228.531 330.75C228.49 331.062 228.448 331.458 228.406 331.938C228.385 332.417 228.365 332.927 228.344 333.469C228.344 333.99 228.333 334.521 228.312 335.062C228.312 335.583 228.312 336.052 228.312 336.469C228.312 336.844 228.312 337.271 228.312 337.75C228.333 338.229 228.344 338.708 228.344 339.188C228.365 339.667 228.385 340.135 228.406 340.594C228.427 341.031 228.448 341.417 228.469 341.75ZM261.125 341.719C261.125 339.031 261.417 336.615 262 334.469C262.604 332.323 263.427 330.438 264.469 328.812C265.531 327.167 266.781 325.76 268.219 324.594C269.677 323.427 271.25 322.469 272.938 321.719C274.625 320.969 276.396 320.427 278.25 320.094C280.125 319.74 282.01 319.562 283.906 319.562C287.177 319.562 290.115 320.094 292.719 321.156C295.323 322.219 297.531 323.75 299.344 325.75C301.156 327.729 302.542 330.156 303.5 333.031C304.458 335.885 304.938 339.115 304.938 342.719C304.938 344.802 304.656 346.771 304.094 348.625C303.552 350.479 302.792 352.188 301.812 353.75C300.833 355.312 299.667 356.719 298.312 357.969C296.979 359.198 295.51 360.25 293.906 361.125C292.302 362 290.604 362.667 288.812 363.125C287.021 363.583 285.198 363.812 283.344 363.812C281.365 363.812 279.438 363.5 277.562 362.875C275.708 362.25 273.958 361.396 272.312 360.312C270.667 359.229 269.156 357.969 267.781 356.531C266.406 355.094 265.229 353.552 264.25 351.906C263.271 350.26 262.5 348.573 261.938 346.844C261.396 345.094 261.125 343.385 261.125 341.719ZM266.812 340.781C266.812 342.198 267.01 343.625 267.406 345.062C267.823 346.479 268.396 347.844 269.125 349.156C269.875 350.469 270.75 351.698 271.75 352.844C272.75 353.969 273.844 354.958 275.031 355.812C276.24 356.646 277.51 357.312 278.844 357.812C280.177 358.292 281.542 358.531 282.938 358.531C285.146 358.531 287.24 358.177 289.219 357.469C291.219 356.74 292.969 355.677 294.469 354.281C295.969 352.885 297.156 351.156 298.031 349.094C298.906 347.031 299.344 344.656 299.344 341.969C299.344 339.344 298.969 336.979 298.219 334.875C297.49 332.771 296.469 330.979 295.156 329.5C293.844 328.021 292.292 326.885 290.5 326.094C288.708 325.302 286.76 324.906 284.656 324.906C282.385 324.906 280.177 325.229 278.031 325.875C275.906 326.521 274.01 327.5 272.344 328.812C270.677 330.125 269.333 331.781 268.312 333.781C267.312 335.76 266.812 338.094 266.812 340.781ZM321.031 360.719C320.552 357.906 320.042 355.167 319.5 352.5C318.958 349.833 318.375 347.188 317.75 344.562C317.146 341.917 316.49 339.26 315.781 336.594C315.094 333.906 314.354 331.135 313.562 328.281C313.438 327.802 313.292 327.281 313.125 326.719C312.979 326.156 312.833 325.594 312.688 325.031C312.562 324.469 312.448 323.927 312.344 323.406C312.26 322.865 312.219 322.396 312.219 322C312.219 321.729 312.292 321.417 312.438 321.062C312.583 320.688 312.781 320.333 313.031 320C313.281 319.646 313.583 319.354 313.938 319.125C314.292 318.875 314.677 318.75 315.094 318.75C315.781 318.75 316.323 318.938 316.719 319.312C317.115 319.688 317.427 320.177 317.656 320.781C317.906 321.385 318.094 322.062 318.219 322.812C318.344 323.542 318.479 324.271 318.625 325C318.854 326.125 319.083 327.167 319.312 328.125C319.542 329.062 319.781 330.01 320.031 330.969C320.281 331.906 320.552 332.906 320.844 333.969C321.156 335.01 321.49 336.208 321.844 337.562C322.219 338.917 322.625 340.479 323.062 342.25C323.521 344.021 324.021 346.083 324.562 348.438C324.729 349.167 324.854 349.906 324.938 350.656C325.021 351.385 325.177 351.896 325.406 352.188L326.281 349.5C326.49 348.875 326.74 348.104 327.031 347.188C327.323 346.271 327.646 345.271 328 344.188C328.354 343.083 328.729 341.927 329.125 340.719C329.542 339.51 329.969 338.302 330.406 337.094C330.865 335.885 331.323 334.708 331.781 333.562C332.24 332.417 332.698 331.365 333.156 330.406C333.615 329.448 334.021 328.615 334.375 327.906C334.75 327.177 335.104 326.573 335.438 326.094C335.771 325.615 336.094 325.26 336.406 325.031C336.74 324.802 337.104 324.688 337.5 324.688C338.229 324.688 338.927 325.281 339.594 326.469C340.26 327.656 340.771 329.448 341.125 331.844C341.417 333.781 341.698 335.604 341.969 337.312C342.26 339 342.562 340.646 342.875 342.25C343.208 343.833 343.583 345.417 344 347C344.417 348.583 344.906 350.24 345.469 351.969C345.948 350.802 346.375 349.479 346.75 348C347.146 346.5 347.552 344.885 347.969 343.156C348.385 341.406 348.844 339.552 349.344 337.594C349.865 335.635 350.479 333.594 351.188 331.469C351.542 330.406 351.906 329.365 352.281 328.344C352.677 327.323 353.052 326.385 353.406 325.531C353.76 324.656 354.083 323.885 354.375 323.219C354.667 322.552 354.906 322.052 355.094 321.719C355.219 321.219 355.385 320.615 355.594 319.906C355.823 319.177 356.115 318.49 356.469 317.844C356.844 317.177 357.302 316.615 357.844 316.156C358.385 315.698 359.042 315.469 359.812 315.469C360.271 315.469 360.688 315.583 361.062 315.812C361.458 316.021 361.792 316.292 362.062 316.625C362.333 316.958 362.542 317.323 362.688 317.719C362.854 318.115 362.938 318.5 362.938 318.875C362.938 319.125 362.875 319.385 362.75 319.656C362.646 319.927 362.49 320.219 362.281 320.531C362.094 320.844 361.854 321.198 361.562 321.594C361.271 321.99 360.948 322.448 360.594 322.969C360.177 323.573 359.781 324.198 359.406 324.844C359.052 325.49 358.677 326.271 358.281 327.188C357.906 328.083 357.5 329.177 357.062 330.469C356.646 331.76 356.167 333.354 355.625 335.25C355.104 337.146 354.51 339.417 353.844 342.062C353.198 344.688 352.458 347.792 351.625 351.375C351.5 351.958 351.333 352.656 351.125 353.469C350.938 354.281 350.708 355.125 350.438 356C350.188 356.854 349.885 357.719 349.531 358.594C349.177 359.448 348.771 360.219 348.312 360.906C347.854 361.573 347.333 362.115 346.75 362.531C346.188 362.948 345.552 363.156 344.844 363.156C344.531 363.156 344.208 363.104 343.875 363C343.542 362.917 343.219 362.781 342.906 362.594C342.615 362.406 342.354 362.167 342.125 361.875C341.896 361.562 341.74 361.198 341.656 360.781C341.302 359.031 340.885 357.208 340.406 355.312C339.927 353.396 339.427 351.448 338.906 349.469C338.406 347.469 337.906 345.438 337.406 343.375C336.927 341.312 336.521 339.24 336.188 337.156C335.896 337.99 335.552 338.979 335.156 340.125C334.76 341.25 334.344 342.458 333.906 343.75C333.49 345.021 333.052 346.323 332.594 347.656C332.156 348.969 331.74 350.229 331.344 351.438C330.969 352.625 330.625 353.719 330.312 354.719C330 355.698 329.76 356.479 329.594 357.062V357C329.531 357.188 329.406 357.49 329.219 357.906C329.031 358.323 328.802 358.792 328.531 359.312C328.281 359.812 328 360.333 327.688 360.875C327.375 361.396 327.052 361.875 326.719 362.312C326.406 362.75 326.094 363.104 325.781 363.375C325.469 363.667 325.188 363.812 324.938 363.812C323.708 363.812 322.792 363.542 322.188 363C321.583 362.479 321.198 361.719 321.031 360.719ZM371.312 342.906C371.104 342.573 370.969 342.219 370.906 341.844C370.844 341.448 370.812 341.052 370.812 340.656C370.812 340.302 370.875 339.938 371 339.562C371.125 339.188 371.229 338.812 371.312 338.438C371.208 336.667 371.104 334.906 371 333.156C370.917 331.406 370.875 329.615 370.875 327.781C370.875 327.406 370.865 326.979 370.844 326.5C370.844 326 370.865 325.49 370.906 324.969C370.948 324.427 371.021 323.906 371.125 323.406C371.229 322.885 371.396 322.427 371.625 322.031C371.854 321.615 372.156 321.281 372.531 321.031C372.927 320.781 373.427 320.656 374.031 320.656C374.49 320.656 374.927 320.74 375.344 320.906C375.781 321.052 376.208 321.219 376.625 321.406C377.062 321.573 377.5 321.74 377.938 321.906C378.375 322.052 378.844 322.125 379.344 322.125C380.594 322.125 382.052 322.115 383.719 322.094C385.385 322.052 387.135 322 388.969 321.938C389.969 321.917 390.958 321.896 391.938 321.875C392.938 321.854 393.917 321.833 394.875 321.812C395.833 321.792 396.75 321.781 397.625 321.781C398.5 321.781 399.312 321.781 400.062 321.781C400.979 321.781 401.74 321.802 402.344 321.844C402.969 321.885 403.458 322.01 403.812 322.219C404.188 322.406 404.448 322.698 404.594 323.094C404.76 323.49 404.844 324.042 404.844 324.75C404.844 325.062 404.76 325.375 404.594 325.688C404.448 326 404.24 326.281 403.969 326.531C403.698 326.781 403.396 326.99 403.062 327.156C402.729 327.323 402.396 327.406 402.062 327.406C398.042 327.385 394.615 327.365 391.781 327.344C388.969 327.323 386.615 327.302 384.719 327.281C382.823 327.26 381.333 327.25 380.25 327.25C379.167 327.229 378.354 327.219 377.812 327.219C377.271 327.198 376.917 327.188 376.75 327.188C376.604 327.188 376.531 327.177 376.531 327.156V337.312C376.531 337.583 376.625 337.719 376.812 337.719C377.583 337.719 378.365 337.729 379.156 337.75C379.948 337.75 380.771 337.76 381.625 337.781C382.5 337.802 383.427 337.823 384.406 337.844C385.385 337.844 386.458 337.844 387.625 337.844C388.396 337.844 389.156 337.781 389.906 337.656C390.677 337.51 391.49 337.438 392.344 337.438C393.198 337.438 393.917 337.688 394.5 338.188C395.104 338.667 395.406 339.458 395.406 340.562C395.406 340.708 395.354 340.927 395.25 341.219C395.146 341.49 394.99 341.771 394.781 342.062C394.594 342.333 394.344 342.573 394.031 342.781C393.719 342.99 393.354 343.094 392.938 343.094H379.469C378.865 343.094 378.385 343.104 378.031 343.125C377.677 343.125 377.406 343.135 377.219 343.156C377.031 343.177 376.906 343.208 376.844 343.25C376.802 343.271 376.781 343.302 376.781 343.344C376.781 343.635 376.812 343.927 376.875 344.219C376.958 344.51 377 344.865 377 345.281C377 345.385 377 345.635 377 346.031C377 346.406 377 346.865 377 347.406C377.021 347.927 377.031 348.51 377.031 349.156C377.052 349.781 377.073 350.396 377.094 351V356C377.01 356.125 377.104 356.229 377.375 356.312C377.646 356.375 378.01 356.427 378.469 356.469C378.927 356.49 379.438 356.51 380 356.531C380.562 356.552 381.094 356.594 381.594 356.656C382.302 356.698 383.177 356.75 384.219 356.812C385.26 356.854 386.333 356.896 387.438 356.938C388.542 356.958 389.625 356.99 390.688 357.031C391.771 357.052 392.698 357.083 393.469 357.125C394.24 357.146 394.802 357.167 395.156 357.188C395.51 357.188 395.542 357.188 395.25 357.188C394.854 357.188 394.688 357.188 394.75 357.188C394.812 357.188 395 357.198 395.312 357.219C395.646 357.219 396.062 357.219 396.562 357.219C397.062 357.219 397.573 357.229 398.094 357.25C398.615 357.25 399.083 357.25 399.5 357.25C399.938 357.25 400.25 357.25 400.438 357.25C401 357.25 401.458 357.365 401.812 357.594C402.188 357.823 402.479 358.115 402.688 358.469C402.896 358.802 403.042 359.177 403.125 359.594C403.208 360.01 403.25 360.406 403.25 360.781C403.25 361.344 403.135 361.823 402.906 362.219C402.677 362.615 402.365 362.927 401.969 363.156C401.594 363.385 401.135 363.552 400.594 363.656C400.073 363.76 399.521 363.812 398.938 363.812C398.5 363.812 397.969 363.729 397.344 363.562C396.719 363.417 396.167 363.229 395.688 363C395.458 362.917 395 362.823 394.312 362.719C393.625 362.615 392.74 362.521 391.656 362.438C390.594 362.354 389.344 362.281 387.906 362.219C386.469 362.156 384.885 362.125 383.156 362.125C381.865 362.125 380.521 362.188 379.125 362.312C377.75 362.417 376.312 362.469 374.812 362.469C374.312 362.469 373.844 362.375 373.406 362.188C372.99 362 372.625 361.75 372.312 361.438C372 361.104 371.75 360.719 371.562 360.281C371.396 359.823 371.312 359.323 371.312 358.781V342.906ZM413.125 358.656C413.125 358.052 413.177 357.458 413.281 356.875C413.385 356.292 413.438 355.677 413.438 355.031C413.438 354.573 413.385 353.938 413.281 353.125C413.198 352.292 413.094 351.354 412.969 350.312C412.844 349.271 412.698 348.156 412.531 346.969C412.365 345.76 412.219 344.562 412.094 343.375C411.969 342.167 411.854 340.99 411.75 339.844C411.667 338.698 411.625 337.656 411.625 336.719C411.625 335.906 411.635 334.99 411.656 333.969C411.677 332.927 411.75 331.906 411.875 330.906C412.021 329.885 412.24 328.948 412.531 328.094C412.844 327.219 413.281 326.531 413.844 326.031C416.01 324.135 418.354 322.625 420.875 321.5C423.396 320.375 426.135 319.812 429.094 319.812C430.531 319.812 431.958 320 433.375 320.375C434.792 320.75 436.073 321.333 437.219 322.125C438.365 322.917 439.292 323.938 440 325.188C440.708 326.417 441.062 327.885 441.062 329.594C441.062 330.865 440.781 331.979 440.219 332.938C439.677 333.896 438.99 334.729 438.156 335.438C437.323 336.125 436.406 336.719 435.406 337.219C434.427 337.698 433.49 338.094 432.594 338.406C433.49 338.427 434.469 338.573 435.531 338.844C436.594 339.094 437.625 339.427 438.625 339.844C439.625 340.26 440.531 340.74 441.344 341.281C442.156 341.823 442.76 342.396 443.156 343C443.927 344.229 444.531 345.552 444.969 346.969C445.427 348.385 445.76 349.896 445.969 351.5C446.198 353.104 446.333 354.792 446.375 356.562C446.438 358.333 446.469 360.188 446.469 362.125C446.469 362.583 446.344 363 446.094 363.375C445.865 363.75 445.583 364.073 445.25 364.344C444.917 364.615 444.552 364.823 444.156 364.969C443.781 365.135 443.458 365.219 443.188 365.219C442.562 365.219 442.062 365.094 441.688 364.844C441.333 364.615 441.062 364.292 440.875 363.875C440.688 363.458 440.562 362.979 440.5 362.438C440.458 361.875 440.438 361.281 440.438 360.656C440.438 360.01 440.479 359.365 440.562 358.719C440.667 358.052 440.719 357.302 440.719 356.469C440.719 355.844 440.698 355.177 440.656 354.469C440.615 353.74 440.542 353.031 440.438 352.344C440.354 351.635 440.24 350.958 440.094 350.312C439.948 349.646 439.771 349.052 439.562 348.531C439.021 347.26 438.24 346.24 437.219 345.469C436.219 344.677 435.083 344.062 433.812 343.625C432.562 343.188 431.25 342.896 429.875 342.75C428.5 342.604 427.177 342.531 425.906 342.531C425.594 342.531 425.083 342.583 424.375 342.688C423.688 342.792 422.948 342.938 422.156 343.125C421.365 343.312 420.594 343.542 419.844 343.812C419.115 344.083 418.552 344.385 418.156 344.719C418.156 345.781 418.208 346.917 418.312 348.125C418.417 349.312 418.552 350.521 418.719 351.75C418.885 352.979 419.083 354.188 419.312 355.375C419.542 356.542 419.771 357.635 420 358.656C420.021 358.76 420.031 358.854 420.031 358.938C420.052 359.021 420.062 359.115 420.062 359.219C420.062 359.635 419.958 360.021 419.75 360.375C419.542 360.729 419.26 361.031 418.906 361.281C418.573 361.531 418.177 361.729 417.719 361.875C417.26 362 416.771 362.062 416.25 362.062C415.833 362.062 415.427 361.958 415.031 361.75C414.656 361.542 414.323 361.281 414.031 360.969C413.76 360.635 413.542 360.271 413.375 359.875C413.208 359.458 413.125 359.052 413.125 358.656ZM417.5 338.312C418.083 338.292 418.927 338.177 420.031 337.969C421.135 337.74 422.344 337.438 423.656 337.062C424.99 336.688 426.344 336.25 427.719 335.75C429.115 335.25 430.375 334.708 431.5 334.125C432.646 333.542 433.573 332.927 434.281 332.281C435.01 331.615 435.375 330.948 435.375 330.281C435.375 329.177 435.177 328.281 434.781 327.594C434.406 326.885 433.906 326.333 433.281 325.938C432.656 325.542 431.948 325.271 431.156 325.125C430.385 324.979 429.615 324.906 428.844 324.906C428.135 324.906 427.354 324.969 426.5 325.094C425.646 325.219 424.792 325.417 423.938 325.688C423.083 325.938 422.25 326.25 421.438 326.625C420.646 327 419.938 327.427 419.312 327.906C418.688 328.385 418.188 328.927 417.812 329.531C417.438 330.135 417.25 330.781 417.25 331.469C417.25 332.698 417.26 333.865 417.281 334.969C417.302 336.073 417.375 337.188 417.5 338.312ZM456.625 342.906C456.417 342.573 456.281 342.219 456.219 341.844C456.156 341.448 456.125 341.052 456.125 340.656C456.125 340.302 456.188 339.938 456.312 339.562C456.438 339.188 456.542 338.812 456.625 338.438C456.521 336.667 456.417 334.906 456.312 333.156C456.229 331.406 456.188 329.615 456.188 327.781C456.188 327.406 456.177 326.979 456.156 326.5C456.156 326 456.177 325.49 456.219 324.969C456.26 324.427 456.333 323.906 456.438 323.406C456.542 322.885 456.708 322.427 456.938 322.031C457.167 321.615 457.469 321.281 457.844 321.031C458.24 320.781 458.74 320.656 459.344 320.656C459.802 320.656 460.24 320.74 460.656 320.906C461.094 321.052 461.521 321.219 461.938 321.406C462.375 321.573 462.812 321.74 463.25 321.906C463.688 322.052 464.156 322.125 464.656 322.125C465.906 322.125 467.365 322.115 469.031 322.094C470.698 322.052 472.448 322 474.281 321.938C475.281 321.917 476.271 321.896 477.25 321.875C478.25 321.854 479.229 321.833 480.188 321.812C481.146 321.792 482.062 321.781 482.938 321.781C483.812 321.781 484.625 321.781 485.375 321.781C486.292 321.781 487.052 321.802 487.656 321.844C488.281 321.885 488.771 322.01 489.125 322.219C489.5 322.406 489.76 322.698 489.906 323.094C490.073 323.49 490.156 324.042 490.156 324.75C490.156 325.062 490.073 325.375 489.906 325.688C489.76 326 489.552 326.281 489.281 326.531C489.01 326.781 488.708 326.99 488.375 327.156C488.042 327.323 487.708 327.406 487.375 327.406C483.354 327.385 479.927 327.365 477.094 327.344C474.281 327.323 471.927 327.302 470.031 327.281C468.135 327.26 466.646 327.25 465.562 327.25C464.479 327.229 463.667 327.219 463.125 327.219C462.583 327.198 462.229 327.188 462.062 327.188C461.917 327.188 461.844 327.177 461.844 327.156V337.312C461.844 337.583 461.938 337.719 462.125 337.719C462.896 337.719 463.677 337.729 464.469 337.75C465.26 337.75 466.083 337.76 466.938 337.781C467.812 337.802 468.74 337.823 469.719 337.844C470.698 337.844 471.771 337.844 472.938 337.844C473.708 337.844 474.469 337.781 475.219 337.656C475.99 337.51 476.802 337.438 477.656 337.438C478.51 337.438 479.229 337.688 479.812 338.188C480.417 338.667 480.719 339.458 480.719 340.562C480.719 340.708 480.667 340.927 480.562 341.219C480.458 341.49 480.302 341.771 480.094 342.062C479.906 342.333 479.656 342.573 479.344 342.781C479.031 342.99 478.667 343.094 478.25 343.094H464.781C464.177 343.094 463.698 343.104 463.344 343.125C462.99 343.125 462.719 343.135 462.531 343.156C462.344 343.177 462.219 343.208 462.156 343.25C462.115 343.271 462.094 343.302 462.094 343.344C462.094 343.635 462.125 343.927 462.188 344.219C462.271 344.51 462.312 344.865 462.312 345.281C462.312 345.385 462.312 345.635 462.312 346.031C462.312 346.406 462.312 346.865 462.312 347.406C462.333 347.927 462.344 348.51 462.344 349.156C462.365 349.781 462.385 350.396 462.406 351V356C462.323 356.125 462.417 356.229 462.688 356.312C462.958 356.375 463.323 356.427 463.781 356.469C464.24 356.49 464.75 356.51 465.312 356.531C465.875 356.552 466.406 356.594 466.906 356.656C467.615 356.698 468.49 356.75 469.531 356.812C470.573 356.854 471.646 356.896 472.75 356.938C473.854 356.958 474.938 356.99 476 357.031C477.083 357.052 478.01 357.083 478.781 357.125C479.552 357.146 480.115 357.167 480.469 357.188C480.823 357.188 480.854 357.188 480.562 357.188C480.167 357.188 480 357.188 480.062 357.188C480.125 357.188 480.312 357.198 480.625 357.219C480.958 357.219 481.375 357.219 481.875 357.219C482.375 357.219 482.885 357.229 483.406 357.25C483.927 357.25 484.396 357.25 484.812 357.25C485.25 357.25 485.562 357.25 485.75 357.25C486.312 357.25 486.771 357.365 487.125 357.594C487.5 357.823 487.792 358.115 488 358.469C488.208 358.802 488.354 359.177 488.438 359.594C488.521 360.01 488.562 360.406 488.562 360.781C488.562 361.344 488.448 361.823 488.219 362.219C487.99 362.615 487.677 362.927 487.281 363.156C486.906 363.385 486.448 363.552 485.906 363.656C485.385 363.76 484.833 363.812 484.25 363.812C483.812 363.812 483.281 363.729 482.656 363.562C482.031 363.417 481.479 363.229 481 363C480.771 362.917 480.312 362.823 479.625 362.719C478.938 362.615 478.052 362.521 476.969 362.438C475.906 362.354 474.656 362.281 473.219 362.219C471.781 362.156 470.198 362.125 468.469 362.125C467.177 362.125 465.833 362.188 464.438 362.312C463.062 362.417 461.625 362.469 460.125 362.469C459.625 362.469 459.156 362.375 458.719 362.188C458.302 362 457.938 361.75 457.625 361.438C457.312 361.104 457.062 360.719 456.875 360.281C456.708 359.823 456.625 359.323 456.625 358.781V342.906ZM497.094 325.906C497.094 324.719 497.281 323.76 497.656 323.031C498.031 322.281 498.5 321.708 499.062 321.312C499.646 320.896 500.281 320.625 500.969 320.5C501.677 320.354 502.375 320.281 503.062 320.281H509.219C511.01 320.281 512.906 320.51 514.906 320.969C516.927 321.406 518.927 322.062 520.906 322.938C522.906 323.812 524.812 324.896 526.625 326.188C528.438 327.458 530.042 328.938 531.438 330.625C532.833 332.292 533.938 334.156 534.75 336.219C535.583 338.26 536 340.49 536 342.906C536 345.448 535.604 347.719 534.812 349.719C534.021 351.719 532.958 353.469 531.625 354.969C530.292 356.469 528.74 357.75 526.969 358.812C525.219 359.854 523.385 360.708 521.469 361.375C519.552 362.021 517.615 362.49 515.656 362.781C513.698 363.073 511.844 363.219 510.094 363.219C509.635 363.219 509.083 363.208 508.438 363.188C507.812 363.188 507.167 363.167 506.5 363.125C505.833 363.104 505.188 363.062 504.562 363C503.958 362.938 503.438 362.865 503 362.781C502.604 363.01 502.177 363.219 501.719 363.406C501.281 363.594 500.948 363.688 500.719 363.688C499.906 363.688 499.25 363.417 498.75 362.875C498.25 362.312 497.865 361.625 497.594 360.812C497.323 360 497.135 359.125 497.031 358.188C496.948 357.229 496.906 356.354 496.906 355.562L497.094 325.906ZM503.562 357.062C503.625 357.125 503.75 357.198 503.938 357.281C504.125 357.344 504.354 357.396 504.625 357.438C504.896 357.479 505.188 357.521 505.5 357.562C505.833 357.583 506.167 357.594 506.5 357.594H511.531C512.74 357.594 514.042 357.458 515.438 357.188C516.854 356.917 518.26 356.521 519.656 356C521.052 355.458 522.385 354.802 523.656 354.031C524.948 353.24 526.083 352.344 527.062 351.344C528.042 350.344 528.823 349.24 529.406 348.031C530.01 346.802 530.312 345.479 530.312 344.062C530.312 342.333 530.021 340.677 529.438 339.094C528.875 337.49 528.104 336 527.125 334.625C526.146 333.25 525 332 523.688 330.875C522.375 329.75 520.969 328.792 519.469 328C517.969 327.188 516.417 326.562 514.812 326.125C513.229 325.688 511.667 325.469 510.125 325.469C509.708 325.469 509.146 325.479 508.438 325.5C507.729 325.5 507.01 325.521 506.281 325.562C505.573 325.604 504.927 325.656 504.344 325.719C503.76 325.781 503.375 325.875 503.188 326C503.021 326.75 502.896 327.479 502.812 328.188C502.75 328.896 502.698 329.615 502.656 330.344C502.635 331.052 502.625 331.781 502.625 332.531C502.625 333.281 502.625 334.083 502.625 334.938C502.625 335.812 502.625 336.833 502.625 338C502.646 339.146 502.667 340.375 502.688 341.688C502.708 343 502.74 344.354 502.781 345.75C502.844 347.146 502.906 348.521 502.969 349.875C503.031 351.229 503.115 352.521 503.219 353.75C503.323 354.979 503.438 356.083 503.562 357.062ZM569.5 360.25C569.5 359.771 569.542 359.344 569.625 358.969C569.708 358.573 569.771 358.167 569.812 357.75C569.812 357.583 569.76 357.312 569.656 356.938C569.552 356.542 569.51 356.115 569.531 355.656L569.781 345.438V339.5C569.781 338.521 569.781 337.469 569.781 336.344C569.781 335.198 569.781 334.01 569.781 332.781C569.802 331.552 569.823 330.292 569.844 329C569.865 327.688 569.896 326.375 569.938 325.062C569.958 324.625 570.062 324.198 570.25 323.781C570.438 323.365 570.656 322.99 570.906 322.656C571.177 322.302 571.479 322.01 571.812 321.781C572.146 321.531 572.49 321.354 572.844 321.25C575.01 320.708 577.198 320.292 579.406 320C581.615 319.688 583.719 319.531 585.719 319.531C586.615 319.531 587.594 319.677 588.656 319.969C589.719 320.24 590.708 320.646 591.625 321.188C592.542 321.729 593.302 322.406 593.906 323.219C594.531 324.01 594.844 324.917 594.844 325.938C594.844 326.667 594.719 327.344 594.469 327.969C594.219 328.594 593.896 329.177 593.5 329.719C593.125 330.24 592.698 330.719 592.219 331.156C591.76 331.573 591.312 331.948 590.875 332.281C592.646 332.698 594.26 333.302 595.719 334.094C597.198 334.885 598.458 335.875 599.5 337.062C600.562 338.229 601.375 339.594 601.938 341.156C602.521 342.719 602.812 344.479 602.812 346.438C602.812 349.292 602.323 351.667 601.344 353.562C600.385 355.458 599.094 357.01 597.469 358.219C595.844 359.406 593.969 360.312 591.844 360.938C589.719 361.542 587.49 361.979 585.156 362.25C584.281 362.354 583.531 362.448 582.906 362.531C582.281 362.594 581.719 362.656 581.219 362.719C580.74 362.76 580.292 362.792 579.875 362.812C579.479 362.833 579.062 362.844 578.625 362.844C578.396 362.844 578.146 362.823 577.875 362.781C577.604 362.74 577.344 362.719 577.094 362.719C576.844 362.719 576.635 362.76 576.469 362.844C576.323 362.927 576.167 363.01 576 363.094C575.854 363.198 575.656 363.281 575.406 363.344C575.177 363.427 574.844 363.469 574.406 363.469C573.969 363.469 573.469 363.396 572.906 363.25C572.344 363.125 571.802 362.938 571.281 362.688C570.781 362.417 570.354 362.083 570 361.688C569.667 361.271 569.5 360.792 569.5 360.25ZM575.156 333.25C575.781 333.104 576.375 332.875 576.938 332.562C577.5 332.229 578.115 331.969 578.781 331.781C579.031 331.74 579.344 331.698 579.719 331.656C580.115 331.594 580.531 331.542 580.969 331.5C581.427 331.438 581.885 331.385 582.344 331.344C582.823 331.281 583.281 331.229 583.719 331.188C584.094 330.958 584.583 330.719 585.188 330.469C585.812 330.198 586.417 329.896 587 329.562C587.583 329.229 588.083 328.844 588.5 328.406C588.917 327.969 589.125 327.458 589.125 326.875C589.125 326.312 588.615 325.833 587.594 325.438C586.594 325.042 585.208 324.844 583.438 324.844C583.146 324.844 582.74 324.865 582.219 324.906C581.719 324.927 581.167 324.99 580.562 325.094C579.958 325.177 579.344 325.292 578.719 325.438C578.094 325.562 577.531 325.74 577.031 325.969C576.531 326.177 576.115 326.427 575.781 326.719C575.448 326.99 575.281 327.312 575.281 327.688L575.156 333.25ZM575.719 356.531C575.719 356.552 575.896 356.583 576.25 356.625C576.625 356.646 577.052 356.677 577.531 356.719C578.01 356.74 578.479 356.76 578.938 356.781C579.417 356.802 579.76 356.812 579.969 356.812C581.281 356.812 582.615 356.76 583.969 356.656C585.344 356.552 586.667 356.354 587.938 356.062C589.229 355.771 590.438 355.375 591.562 354.875C592.688 354.354 593.667 353.698 594.5 352.906C595.333 352.094 595.99 351.115 596.469 349.969C596.969 348.802 597.219 347.438 597.219 345.875C597.219 344.354 596.844 343.01 596.094 341.844C595.365 340.656 594.417 339.656 593.25 338.844C592.083 338.031 590.781 337.417 589.344 337C587.927 336.583 586.521 336.375 585.125 336.375C584.354 336.375 583.646 336.521 583 336.812C582.375 337.083 581.781 337.385 581.219 337.719C580.656 338.031 580.104 338.333 579.562 338.625C579.042 338.896 578.51 339.031 577.969 339.031C577.698 339.031 577.406 339.01 577.094 338.969C576.802 338.906 576.562 338.875 576.375 338.875C576.229 338.875 576.062 338.938 575.875 339.062C575.688 339.188 575.51 339.354 575.344 339.562C575.344 340.042 575.323 340.562 575.281 341.125C575.26 341.667 575.25 342.177 575.25 342.656C575.25 344.552 575.333 346.469 575.5 348.406C575.688 350.323 575.781 352.26 575.781 354.219C575.781 354.594 575.771 354.979 575.75 355.375C575.75 355.75 575.74 356.135 575.719 356.531ZM615.531 363.531C615.531 362.927 615.688 362.104 616 361.062C616.333 360 616.75 358.875 617.25 357.688C617.75 356.479 618.292 355.271 618.875 354.062C619.458 352.854 620.01 351.802 620.531 350.906C620.885 350.323 621.198 349.781 621.469 349.281C621.74 348.781 621.875 348.385 621.875 348.094C621.875 347.74 621.781 347.344 621.594 346.906C621.427 346.469 621.26 346.115 621.094 345.844C620.781 345.323 620.24 344.542 619.469 343.5C618.719 342.458 617.854 341.271 616.875 339.938C615.917 338.604 614.917 337.198 613.875 335.719C612.833 334.219 611.875 332.771 611 331.375C610.146 329.979 609.438 328.698 608.875 327.531C608.333 326.344 608.062 325.396 608.062 324.688C608.062 324.375 608.125 324.083 608.25 323.812C608.396 323.521 608.573 323.271 608.781 323.062C609.01 322.833 609.271 322.656 609.562 322.531C609.854 322.406 610.146 322.344 610.438 322.344C611.021 322.344 611.479 322.438 611.812 322.625C612.146 322.792 612.49 323.167 612.844 323.75C613.073 324.146 613.49 324.812 614.094 325.75C614.698 326.667 615.396 327.729 616.188 328.938C616.979 330.125 617.823 331.396 618.719 332.75C619.635 334.104 620.521 335.406 621.375 336.656C622.25 337.885 623.042 339 623.75 340C624.479 340.979 625.062 341.708 625.5 342.188C625.604 342.042 625.729 341.865 625.875 341.656C626.042 341.427 626.198 341.198 626.344 340.969C626.49 340.74 626.625 340.531 626.75 340.344C626.875 340.156 626.969 340.01 627.031 339.906C627.802 338.573 628.635 337.094 629.531 335.469C630.427 333.844 631.333 332.24 632.25 330.656C633.167 329.052 634.062 327.552 634.938 326.156C635.812 324.76 636.615 323.615 637.344 322.719C637.698 322.281 638.021 321.885 638.312 321.531C638.625 321.177 638.927 320.875 639.219 320.625C639.531 320.375 639.854 320.188 640.188 320.062C640.521 319.917 640.896 319.844 641.312 319.844C641.917 319.844 642.417 320.062 642.812 320.5C643.208 320.917 643.406 321.417 643.406 322C643.406 322.104 643.375 322.229 643.312 322.375C643.271 322.5 643.146 322.76 642.938 323.156C642.729 323.552 642.417 324.115 642 324.844C641.604 325.552 641.052 326.531 640.344 327.781C639.385 329.406 638.354 331.177 637.25 333.094C636.167 334.99 635.052 336.969 633.906 339.031C632.76 341.094 631.615 343.208 630.469 345.375C629.323 347.521 628.219 349.656 627.156 351.781C626.094 353.906 625.094 356 624.156 358.062C623.219 360.104 622.396 362.042 621.688 363.875C621.625 364.042 621.521 364.271 621.375 364.562C621.229 364.854 621.052 365.135 620.844 365.406C620.635 365.698 620.396 365.948 620.125 366.156C619.854 366.365 619.573 366.469 619.281 366.469C619.052 366.469 618.729 366.385 618.312 366.219C617.896 366.052 617.479 365.823 617.062 365.531C616.646 365.26 616.281 364.948 615.969 364.594C615.677 364.24 615.531 363.885 615.531 363.531ZM672.625 342.906C672.417 342.573 672.281 342.219 672.219 341.844C672.156 341.448 672.125 341.052 672.125 340.656C672.125 340.302 672.188 339.938 672.312 339.562C672.438 339.188 672.542 338.812 672.625 338.438C672.521 336.667 672.417 334.906 672.312 333.156C672.229 331.406 672.188 329.615 672.188 327.781C672.188 327.406 672.177 326.979 672.156 326.5C672.156 326 672.177 325.49 672.219 324.969C672.26 324.427 672.333 323.906 672.438 323.406C672.542 322.885 672.708 322.427 672.938 322.031C673.167 321.615 673.469 321.281 673.844 321.031C674.24 320.781 674.74 320.656 675.344 320.656C675.802 320.656 676.24 320.74 676.656 320.906C677.094 321.052 677.521 321.219 677.938 321.406C678.375 321.573 678.812 321.74 679.25 321.906C679.688 322.052 680.156 322.125 680.656 322.125C681.906 322.125 683.365 322.115 685.031 322.094C686.698 322.052 688.448 322 690.281 321.938C691.281 321.917 692.271 321.896 693.25 321.875C694.25 321.854 695.229 321.833 696.188 321.812C697.146 321.792 698.062 321.781 698.938 321.781C699.812 321.781 700.625 321.781 701.375 321.781C702.292 321.781 703.052 321.802 703.656 321.844C704.281 321.885 704.771 322.01 705.125 322.219C705.5 322.406 705.76 322.698 705.906 323.094C706.073 323.49 706.156 324.042 706.156 324.75C706.156 325.062 706.073 325.375 705.906 325.688C705.76 326 705.552 326.281 705.281 326.531C705.01 326.781 704.708 326.99 704.375 327.156C704.042 327.323 703.708 327.406 703.375 327.406C699.354 327.385 695.927 327.365 693.094 327.344C690.281 327.323 687.927 327.302 686.031 327.281C684.135 327.26 682.646 327.25 681.562 327.25C680.479 327.229 679.667 327.219 679.125 327.219C678.583 327.198 678.229 327.188 678.062 327.188C677.917 327.188 677.844 327.177 677.844 327.156V337.312C677.844 337.583 677.938 337.719 678.125 337.719C678.896 337.719 679.677 337.729 680.469 337.75C681.26 337.75 682.083 337.76 682.938 337.781C683.812 337.802 684.74 337.823 685.719 337.844C686.698 337.844 687.771 337.844 688.938 337.844C689.708 337.844 690.469 337.781 691.219 337.656C691.99 337.51 692.802 337.438 693.656 337.438C694.51 337.438 695.229 337.688 695.812 338.188C696.417 338.667 696.719 339.458 696.719 340.562C696.719 340.708 696.667 340.927 696.562 341.219C696.458 341.49 696.302 341.771 696.094 342.062C695.906 342.333 695.656 342.573 695.344 342.781C695.031 342.99 694.667 343.094 694.25 343.094H680.781C680.177 343.094 679.698 343.104 679.344 343.125C678.99 343.125 678.719 343.135 678.531 343.156C678.344 343.177 678.219 343.208 678.156 343.25C678.115 343.271 678.094 343.302 678.094 343.344C678.094 343.635 678.125 343.927 678.188 344.219C678.271 344.51 678.312 344.865 678.312 345.281C678.312 345.385 678.312 345.635 678.312 346.031C678.312 346.406 678.312 346.865 678.312 347.406C678.333 347.927 678.344 348.51 678.344 349.156C678.365 349.781 678.385 350.396 678.406 351V356C678.323 356.125 678.417 356.229 678.688 356.312C678.958 356.375 679.323 356.427 679.781 356.469C680.24 356.49 680.75 356.51 681.312 356.531C681.875 356.552 682.406 356.594 682.906 356.656C683.615 356.698 684.49 356.75 685.531 356.812C686.573 356.854 687.646 356.896 688.75 356.938C689.854 356.958 690.938 356.99 692 357.031C693.083 357.052 694.01 357.083 694.781 357.125C695.552 357.146 696.115 357.167 696.469 357.188C696.823 357.188 696.854 357.188 696.562 357.188C696.167 357.188 696 357.188 696.062 357.188C696.125 357.188 696.312 357.198 696.625 357.219C696.958 357.219 697.375 357.219 697.875 357.219C698.375 357.219 698.885 357.229 699.406 357.25C699.927 357.25 700.396 357.25 700.812 357.25C701.25 357.25 701.562 357.25 701.75 357.25C702.312 357.25 702.771 357.365 703.125 357.594C703.5 357.823 703.792 358.115 704 358.469C704.208 358.802 704.354 359.177 704.438 359.594C704.521 360.01 704.562 360.406 704.562 360.781C704.562 361.344 704.448 361.823 704.219 362.219C703.99 362.615 703.677 362.927 703.281 363.156C702.906 363.385 702.448 363.552 701.906 363.656C701.385 363.76 700.833 363.812 700.25 363.812C699.812 363.812 699.281 363.729 698.656 363.562C698.031 363.417 697.479 363.229 697 363C696.771 362.917 696.312 362.823 695.625 362.719C694.938 362.615 694.052 362.521 692.969 362.438C691.906 362.354 690.656 362.281 689.219 362.219C687.781 362.156 686.198 362.125 684.469 362.125C683.177 362.125 681.833 362.188 680.438 362.312C679.062 362.417 677.625 362.469 676.125 362.469C675.625 362.469 675.156 362.375 674.719 362.188C674.302 362 673.938 361.75 673.625 361.438C673.312 361.104 673.062 360.719 672.875 360.281C672.708 359.823 672.625 359.323 672.625 358.781V342.906ZM724.812 358.062C724.812 357.562 724.833 357.062 724.875 356.562C724.917 356.062 724.938 355.542 724.938 355C724.938 354.333 724.896 353.677 724.812 353.031C724.75 352.365 724.677 351.698 724.594 351.031C724.51 350.365 724.427 349.688 724.344 349C724.281 348.312 724.25 347.615 724.25 346.906C724.25 345.781 724.198 344.667 724.094 343.562C724.01 342.458 723.917 341.344 723.812 340.219C723.708 339.094 723.604 337.958 723.5 336.812C723.417 335.646 723.365 334.458 723.344 333.25L723.281 326.656C722.615 326.677 721.885 326.74 721.094 326.844C720.302 326.927 719.49 327.031 718.656 327.156C717.844 327.26 717.01 327.354 716.156 327.438C715.323 327.521 714.531 327.562 713.781 327.562C712.406 327.562 711.417 327.406 710.812 327.094C710.229 326.76 709.917 326.26 709.875 325.594C709.812 324.698 709.927 323.969 710.219 323.406C710.51 322.844 710.896 322.406 711.375 322.094C711.854 321.76 712.396 321.531 713 321.406C713.625 321.281 714.229 321.219 714.812 321.219C717.896 321.219 721 321.156 724.125 321.031C727.271 320.906 730.51 320.844 733.844 320.844C734.323 320.844 734.802 320.812 735.281 320.75C735.76 320.667 736.24 320.583 736.719 320.5C737.219 320.417 737.708 320.344 738.188 320.281C738.688 320.198 739.198 320.156 739.719 320.156C740.219 320.156 740.667 320.271 741.062 320.5C741.458 320.729 741.802 321.031 742.094 321.406C742.385 321.76 742.604 322.177 742.75 322.656C742.917 323.115 743 323.583 743 324.062C743 324.354 742.906 324.698 742.719 325.094C742.531 325.469 742.281 325.833 741.969 326.188C741.656 326.542 741.302 326.844 740.906 327.094C740.51 327.323 740.115 327.438 739.719 327.438C739.24 327.438 738.802 327.365 738.406 327.219C738.01 327.052 737.635 326.875 737.281 326.688C736.948 326.479 736.635 326.302 736.344 326.156C736.052 325.99 735.781 325.906 735.531 325.906C735.323 325.906 734.917 325.917 734.312 325.938C733.729 325.938 733.083 325.948 732.375 325.969C731.688 325.99 731.021 326.021 730.375 326.062C729.75 326.104 729.281 326.156 728.969 326.219V326.906C728.969 327.24 728.969 327.76 728.969 328.469C728.99 329.156 729 330.156 729 331.469C729 333.573 729.073 335.677 729.219 337.781C729.385 339.865 729.604 341.979 729.875 344.125C730 346.167 730.094 348.208 730.156 350.25C730.24 352.292 730.427 354.375 730.719 356.5C730.74 356.667 730.802 356.938 730.906 357.312C731.01 357.688 731.115 358.094 731.219 358.531C731.323 358.948 731.417 359.354 731.5 359.75C731.604 360.146 731.656 360.438 731.656 360.625C731.656 361.104 731.625 361.51 731.562 361.844C731.5 362.156 731.365 362.417 731.156 362.625C730.948 362.833 730.646 362.99 730.25 363.094C729.854 363.198 729.333 363.26 728.688 363.281C727.771 363.323 727.052 363.208 726.531 362.938C726.01 362.667 725.625 362.292 725.375 361.812C725.125 361.312 724.969 360.74 724.906 360.094C724.844 359.448 724.812 358.771 724.812 358.062ZM752.625 360.344C752.625 358.323 752.615 356.438 752.594 354.688C752.573 352.938 752.552 351.229 752.531 349.562C752.51 347.896 752.479 346.208 752.438 344.5C752.417 342.771 752.396 340.917 752.375 338.938C752.354 336.938 752.333 334.75 752.312 332.375C752.292 330 752.281 327.323 752.281 324.344C752.281 323.969 752.302 323.562 752.344 323.125C752.406 322.667 752.521 322.25 752.688 321.875C752.875 321.5 753.146 321.188 753.5 320.938C753.854 320.667 754.333 320.531 754.938 320.531C755.25 320.531 755.573 320.646 755.906 320.875C756.26 321.104 756.583 321.406 756.875 321.781C757.167 322.135 757.406 322.531 757.594 322.969C757.802 323.406 757.906 323.844 757.906 324.281L758.031 338.344C758.031 338.74 758.198 338.938 758.531 338.938C762.031 338.938 764.979 338.948 767.375 338.969C769.792 338.969 771.781 338.969 773.344 338.969C774.906 338.969 776.115 338.969 776.969 338.969C777.823 338.969 778.458 338.969 778.875 338.969C779.292 338.969 779.552 338.958 779.656 338.938C779.781 338.896 779.875 338.854 779.938 338.812C779.896 336.354 779.812 333.927 779.688 331.531C779.583 329.115 779.531 326.677 779.531 324.219C779.531 323.677 779.573 323.167 779.656 322.688C779.74 322.188 779.885 321.76 780.094 321.406C780.302 321.031 780.573 320.74 780.906 320.531C781.26 320.323 781.698 320.219 782.219 320.219C782.885 320.219 783.417 320.375 783.812 320.688C784.208 321 784.5 321.406 784.688 321.906C784.896 322.385 785.031 322.938 785.094 323.562C785.156 324.188 785.188 324.812 785.188 325.438C785.188 326.146 785.198 326.938 785.219 327.812C785.24 328.688 785.271 329.667 785.312 330.75C785.354 331.833 785.396 333.031 785.438 334.344C785.5 335.656 785.562 337.104 785.625 338.688C785.688 338.812 785.76 338.979 785.844 339.188C785.948 339.396 786.031 339.625 786.094 339.875C786.177 340.125 786.24 340.375 786.281 340.625C786.344 340.875 786.375 341.094 786.375 341.281C786.375 341.469 786.344 341.708 786.281 342C786.24 342.271 786.198 342.531 786.156 342.781C786.073 343.073 786 343.375 785.938 343.688C786.062 346.438 786.167 348.771 786.25 350.688C786.333 352.583 786.396 354.167 786.438 355.438C786.479 356.708 786.51 357.708 786.531 358.438C786.552 359.146 786.562 359.688 786.562 360.062C786.562 360.896 786.292 361.625 785.75 362.25C785.208 362.854 784.479 363.156 783.562 363.156C782.583 363.156 781.854 362.823 781.375 362.156C780.896 361.49 780.656 360.281 780.656 358.531L780.469 344.469C780.344 344.469 780.125 344.469 779.812 344.469C779.5 344.469 779.021 344.479 778.375 344.5C777.729 344.5 776.885 344.51 775.844 344.531C774.802 344.531 773.49 344.542 771.906 344.562C770.344 344.562 768.469 344.573 766.281 344.594C764.115 344.594 761.573 344.594 758.656 344.594C758.552 344.594 758.438 344.708 758.312 344.938C758.208 345.146 758.156 345.365 758.156 345.594C758.156 347.927 758.24 350.385 758.406 352.969C758.573 355.552 758.656 358.104 758.656 360.625C758.656 360.917 758.542 361.198 758.312 361.469C758.083 361.74 757.802 361.979 757.469 362.188C757.156 362.396 756.812 362.562 756.438 362.688C756.062 362.792 755.729 362.844 755.438 362.844C755.146 362.844 754.833 362.792 754.5 362.688C754.188 362.583 753.885 362.427 753.594 362.219C753.323 361.99 753.094 361.729 752.906 361.438C752.719 361.125 752.625 360.76 752.625 360.344ZM798.5 342.906C798.292 342.573 798.156 342.219 798.094 341.844C798.031 341.448 798 341.052 798 340.656C798 340.302 798.062 339.938 798.188 339.562C798.312 339.188 798.417 338.812 798.5 338.438C798.396 336.667 798.292 334.906 798.188 333.156C798.104 331.406 798.062 329.615 798.062 327.781C798.062 327.406 798.052 326.979 798.031 326.5C798.031 326 798.052 325.49 798.094 324.969C798.135 324.427 798.208 323.906 798.312 323.406C798.417 322.885 798.583 322.427 798.812 322.031C799.042 321.615 799.344 321.281 799.719 321.031C800.115 320.781 800.615 320.656 801.219 320.656C801.677 320.656 802.115 320.74 802.531 320.906C802.969 321.052 803.396 321.219 803.812 321.406C804.25 321.573 804.688 321.74 805.125 321.906C805.562 322.052 806.031 322.125 806.531 322.125C807.781 322.125 809.24 322.115 810.906 322.094C812.573 322.052 814.323 322 816.156 321.938C817.156 321.917 818.146 321.896 819.125 321.875C820.125 321.854 821.104 321.833 822.062 321.812C823.021 321.792 823.938 321.781 824.812 321.781C825.688 321.781 826.5 321.781 827.25 321.781C828.167 321.781 828.927 321.802 829.531 321.844C830.156 321.885 830.646 322.01 831 322.219C831.375 322.406 831.635 322.698 831.781 323.094C831.948 323.49 832.031 324.042 832.031 324.75C832.031 325.062 831.948 325.375 831.781 325.688C831.635 326 831.427 326.281 831.156 326.531C830.885 326.781 830.583 326.99 830.25 327.156C829.917 327.323 829.583 327.406 829.25 327.406C825.229 327.385 821.802 327.365 818.969 327.344C816.156 327.323 813.802 327.302 811.906 327.281C810.01 327.26 808.521 327.25 807.438 327.25C806.354 327.229 805.542 327.219 805 327.219C804.458 327.198 804.104 327.188 803.938 327.188C803.792 327.188 803.719 327.177 803.719 327.156V337.312C803.719 337.583 803.812 337.719 804 337.719C804.771 337.719 805.552 337.729 806.344 337.75C807.135 337.75 807.958 337.76 808.812 337.781C809.688 337.802 810.615 337.823 811.594 337.844C812.573 337.844 813.646 337.844 814.812 337.844C815.583 337.844 816.344 337.781 817.094 337.656C817.865 337.51 818.677 337.438 819.531 337.438C820.385 337.438 821.104 337.688 821.688 338.188C822.292 338.667 822.594 339.458 822.594 340.562C822.594 340.708 822.542 340.927 822.438 341.219C822.333 341.49 822.177 341.771 821.969 342.062C821.781 342.333 821.531 342.573 821.219 342.781C820.906 342.99 820.542 343.094 820.125 343.094H806.656C806.052 343.094 805.573 343.104 805.219 343.125C804.865 343.125 804.594 343.135 804.406 343.156C804.219 343.177 804.094 343.208 804.031 343.25C803.99 343.271 803.969 343.302 803.969 343.344C803.969 343.635 804 343.927 804.062 344.219C804.146 344.51 804.188 344.865 804.188 345.281C804.188 345.385 804.188 345.635 804.188 346.031C804.188 346.406 804.188 346.865 804.188 347.406C804.208 347.927 804.219 348.51 804.219 349.156C804.24 349.781 804.26 350.396 804.281 351V356C804.198 356.125 804.292 356.229 804.562 356.312C804.833 356.375 805.198 356.427 805.656 356.469C806.115 356.49 806.625 356.51 807.188 356.531C807.75 356.552 808.281 356.594 808.781 356.656C809.49 356.698 810.365 356.75 811.406 356.812C812.448 356.854 813.521 356.896 814.625 356.938C815.729 356.958 816.812 356.99 817.875 357.031C818.958 357.052 819.885 357.083 820.656 357.125C821.427 357.146 821.99 357.167 822.344 357.188C822.698 357.188 822.729 357.188 822.438 357.188C822.042 357.188 821.875 357.188 821.938 357.188C822 357.188 822.188 357.198 822.5 357.219C822.833 357.219 823.25 357.219 823.75 357.219C824.25 357.219 824.76 357.229 825.281 357.25C825.802 357.25 826.271 357.25 826.688 357.25C827.125 357.25 827.438 357.25 827.625 357.25C828.188 357.25 828.646 357.365 829 357.594C829.375 357.823 829.667 358.115 829.875 358.469C830.083 358.802 830.229 359.177 830.312 359.594C830.396 360.01 830.438 360.406 830.438 360.781C830.438 361.344 830.323 361.823 830.094 362.219C829.865 362.615 829.552 362.927 829.156 363.156C828.781 363.385 828.323 363.552 827.781 363.656C827.26 363.76 826.708 363.812 826.125 363.812C825.688 363.812 825.156 363.729 824.531 363.562C823.906 363.417 823.354 363.229 822.875 363C822.646 362.917 822.188 362.823 821.5 362.719C820.812 362.615 819.927 362.521 818.844 362.438C817.781 362.354 816.531 362.281 815.094 362.219C813.656 362.156 812.073 362.125 810.344 362.125C809.052 362.125 807.708 362.188 806.312 362.312C804.938 362.417 803.5 362.469 802 362.469C801.5 362.469 801.031 362.375 800.594 362.188C800.177 362 799.812 361.75 799.5 361.438C799.188 361.104 798.938 360.719 798.75 360.281C798.583 359.823 798.5 359.323 798.5 358.781V342.906ZM840.312 358.656C840.312 358.052 840.365 357.458 840.469 356.875C840.573 356.292 840.625 355.677 840.625 355.031C840.625 354.573 840.573 353.938 840.469 353.125C840.385 352.292 840.281 351.354 840.156 350.312C840.031 349.271 839.885 348.156 839.719 346.969C839.552 345.76 839.406 344.562 839.281 343.375C839.156 342.167 839.042 340.99 838.938 339.844C838.854 338.698 838.812 337.656 838.812 336.719C838.812 335.906 838.823 334.99 838.844 333.969C838.865 332.927 838.938 331.906 839.062 330.906C839.208 329.885 839.427 328.948 839.719 328.094C840.031 327.219 840.469 326.531 841.031 326.031C843.198 324.135 845.542 322.625 848.062 321.5C850.583 320.375 853.323 319.812 856.281 319.812C857.719 319.812 859.146 320 860.562 320.375C861.979 320.75 863.26 321.333 864.406 322.125C865.552 322.917 866.479 323.938 867.188 325.188C867.896 326.417 868.25 327.885 868.25 329.594C868.25 330.865 867.969 331.979 867.406 332.938C866.865 333.896 866.177 334.729 865.344 335.438C864.51 336.125 863.594 336.719 862.594 337.219C861.615 337.698 860.677 338.094 859.781 338.406C860.677 338.427 861.656 338.573 862.719 338.844C863.781 339.094 864.812 339.427 865.812 339.844C866.812 340.26 867.719 340.74 868.531 341.281C869.344 341.823 869.948 342.396 870.344 343C871.115 344.229 871.719 345.552 872.156 346.969C872.615 348.385 872.948 349.896 873.156 351.5C873.385 353.104 873.521 354.792 873.562 356.562C873.625 358.333 873.656 360.188 873.656 362.125C873.656 362.583 873.531 363 873.281 363.375C873.052 363.75 872.771 364.073 872.438 364.344C872.104 364.615 871.74 364.823 871.344 364.969C870.969 365.135 870.646 365.219 870.375 365.219C869.75 365.219 869.25 365.094 868.875 364.844C868.521 364.615 868.25 364.292 868.062 363.875C867.875 363.458 867.75 362.979 867.688 362.438C867.646 361.875 867.625 361.281 867.625 360.656C867.625 360.01 867.667 359.365 867.75 358.719C867.854 358.052 867.906 357.302 867.906 356.469C867.906 355.844 867.885 355.177 867.844 354.469C867.802 353.74 867.729 353.031 867.625 352.344C867.542 351.635 867.427 350.958 867.281 350.312C867.135 349.646 866.958 349.052 866.75 348.531C866.208 347.26 865.427 346.24 864.406 345.469C863.406 344.677 862.271 344.062 861 343.625C859.75 343.188 858.438 342.896 857.062 342.75C855.688 342.604 854.365 342.531 853.094 342.531C852.781 342.531 852.271 342.583 851.562 342.688C850.875 342.792 850.135 342.938 849.344 343.125C848.552 343.312 847.781 343.542 847.031 343.812C846.302 344.083 845.74 344.385 845.344 344.719C845.344 345.781 845.396 346.917 845.5 348.125C845.604 349.312 845.74 350.521 845.906 351.75C846.073 352.979 846.271 354.188 846.5 355.375C846.729 356.542 846.958 357.635 847.188 358.656C847.208 358.76 847.219 358.854 847.219 358.938C847.24 359.021 847.25 359.115 847.25 359.219C847.25 359.635 847.146 360.021 846.938 360.375C846.729 360.729 846.448 361.031 846.094 361.281C845.76 361.531 845.365 361.729 844.906 361.875C844.448 362 843.958 362.062 843.438 362.062C843.021 362.062 842.615 361.958 842.219 361.75C841.844 361.542 841.51 361.281 841.219 360.969C840.948 360.635 840.729 360.271 840.562 359.875C840.396 359.458 840.312 359.052 840.312 358.656ZM844.688 338.312C845.271 338.292 846.115 338.177 847.219 337.969C848.323 337.74 849.531 337.438 850.844 337.062C852.177 336.688 853.531 336.25 854.906 335.75C856.302 335.25 857.562 334.708 858.688 334.125C859.833 333.542 860.76 332.927 861.469 332.281C862.198 331.615 862.562 330.948 862.562 330.281C862.562 329.177 862.365 328.281 861.969 327.594C861.594 326.885 861.094 326.333 860.469 325.938C859.844 325.542 859.135 325.271 858.344 325.125C857.573 324.979 856.802 324.906 856.031 324.906C855.323 324.906 854.542 324.969 853.688 325.094C852.833 325.219 851.979 325.417 851.125 325.688C850.271 325.938 849.438 326.25 848.625 326.625C847.833 327 847.125 327.427 846.5 327.906C845.875 328.385 845.375 328.927 845 329.531C844.625 330.135 844.438 330.781 844.438 331.469C844.438 332.698 844.448 333.865 844.469 334.969C844.49 336.073 844.562 337.188 844.688 338.312ZM883.812 342.906C883.604 342.573 883.469 342.219 883.406 341.844C883.344 341.448 883.312 341.052 883.312 340.656C883.312 340.302 883.375 339.938 883.5 339.562C883.625 339.188 883.729 338.812 883.812 338.438C883.708 336.667 883.604 334.906 883.5 333.156C883.417 331.406 883.375 329.615 883.375 327.781C883.375 327.406 883.365 326.979 883.344 326.5C883.344 326 883.365 325.49 883.406 324.969C883.448 324.427 883.521 323.906 883.625 323.406C883.729 322.885 883.896 322.427 884.125 322.031C884.354 321.615 884.656 321.281 885.031 321.031C885.427 320.781 885.927 320.656 886.531 320.656C886.99 320.656 887.427 320.74 887.844 320.906C888.281 321.052 888.708 321.219 889.125 321.406C889.562 321.573 890 321.74 890.438 321.906C890.875 322.052 891.344 322.125 891.844 322.125C893.094 322.125 894.552 322.115 896.219 322.094C897.885 322.052 899.635 322 901.469 321.938C902.469 321.917 903.458 321.896 904.438 321.875C905.438 321.854 906.417 321.833 907.375 321.812C908.333 321.792 909.25 321.781 910.125 321.781C911 321.781 911.812 321.781 912.562 321.781C913.479 321.781 914.24 321.802 914.844 321.844C915.469 321.885 915.958 322.01 916.312 322.219C916.688 322.406 916.948 322.698 917.094 323.094C917.26 323.49 917.344 324.042 917.344 324.75C917.344 325.062 917.26 325.375 917.094 325.688C916.948 326 916.74 326.281 916.469 326.531C916.198 326.781 915.896 326.99 915.562 327.156C915.229 327.323 914.896 327.406 914.562 327.406C910.542 327.385 907.115 327.365 904.281 327.344C901.469 327.323 899.115 327.302 897.219 327.281C895.323 327.26 893.833 327.25 892.75 327.25C891.667 327.229 890.854 327.219 890.312 327.219C889.771 327.198 889.417 327.188 889.25 327.188C889.104 327.188 889.031 327.177 889.031 327.156V337.312C889.031 337.583 889.125 337.719 889.312 337.719C890.083 337.719 890.865 337.729 891.656 337.75C892.448 337.75 893.271 337.76 894.125 337.781C895 337.802 895.927 337.823 896.906 337.844C897.885 337.844 898.958 337.844 900.125 337.844C900.896 337.844 901.656 337.781 902.406 337.656C903.177 337.51 903.99 337.438 904.844 337.438C905.698 337.438 906.417 337.688 907 338.188C907.604 338.667 907.906 339.458 907.906 340.562C907.906 340.708 907.854 340.927 907.75 341.219C907.646 341.49 907.49 341.771 907.281 342.062C907.094 342.333 906.844 342.573 906.531 342.781C906.219 342.99 905.854 343.094 905.438 343.094H891.969C891.365 343.094 890.885 343.104 890.531 343.125C890.177 343.125 889.906 343.135 889.719 343.156C889.531 343.177 889.406 343.208 889.344 343.25C889.302 343.271 889.281 343.302 889.281 343.344C889.281 343.635 889.312 343.927 889.375 344.219C889.458 344.51 889.5 344.865 889.5 345.281C889.5 345.385 889.5 345.635 889.5 346.031C889.5 346.406 889.5 346.865 889.5 347.406C889.521 347.927 889.531 348.51 889.531 349.156C889.552 349.781 889.573 350.396 889.594 351V356C889.51 356.125 889.604 356.229 889.875 356.312C890.146 356.375 890.51 356.427 890.969 356.469C891.427 356.49 891.938 356.51 892.5 356.531C893.062 356.552 893.594 356.594 894.094 356.656C894.802 356.698 895.677 356.75 896.719 356.812C897.76 356.854 898.833 356.896 899.938 356.938C901.042 356.958 902.125 356.99 903.188 357.031C904.271 357.052 905.198 357.083 905.969 357.125C906.74 357.146 907.302 357.167 907.656 357.188C908.01 357.188 908.042 357.188 907.75 357.188C907.354 357.188 907.188 357.188 907.25 357.188C907.312 357.188 907.5 357.198 907.812 357.219C908.146 357.219 908.562 357.219 909.062 357.219C909.562 357.219 910.073 357.229 910.594 357.25C911.115 357.25 911.583 357.25 912 357.25C912.438 357.25 912.75 357.25 912.938 357.25C913.5 357.25 913.958 357.365 914.312 357.594C914.688 357.823 914.979 358.115 915.188 358.469C915.396 358.802 915.542 359.177 915.625 359.594C915.708 360.01 915.75 360.406 915.75 360.781C915.75 361.344 915.635 361.823 915.406 362.219C915.177 362.615 914.865 362.927 914.469 363.156C914.094 363.385 913.635 363.552 913.094 363.656C912.573 363.76 912.021 363.812 911.438 363.812C911 363.812 910.469 363.729 909.844 363.562C909.219 363.417 908.667 363.229 908.188 363C907.958 362.917 907.5 362.823 906.812 362.719C906.125 362.615 905.24 362.521 904.156 362.438C903.094 362.354 901.844 362.281 900.406 362.219C898.969 362.156 897.385 362.125 895.656 362.125C894.365 362.125 893.021 362.188 891.625 362.312C890.25 362.417 888.812 362.469 887.312 362.469C886.812 362.469 886.344 362.375 885.906 362.188C885.49 362 885.125 361.75 884.812 361.438C884.5 361.104 884.25 360.719 884.062 360.281C883.896 359.823 883.812 359.323 883.812 358.781V342.906ZM937.5 363.969C935.625 363.969 933.979 363.625 932.562 362.938C931.146 362.229 929.927 361.292 928.906 360.125C927.885 358.938 927.042 357.562 926.375 356C925.708 354.438 925.177 352.792 924.781 351.062C924.385 349.333 924.104 347.573 923.938 345.781C923.792 343.99 923.719 342.271 923.719 340.625C923.719 339.417 923.76 338.083 923.844 336.625C923.927 335.146 924.042 333.656 924.188 332.156C924.333 330.656 924.5 329.188 924.688 327.75C924.896 326.312 925.125 325.021 925.375 323.875C925.5 323.292 925.844 322.76 926.406 322.281C926.969 321.802 927.667 321.562 928.5 321.562C929 321.562 929.406 321.635 929.719 321.781C930.031 321.927 930.281 322.125 930.469 322.375C930.656 322.625 930.781 322.917 930.844 323.25C930.927 323.562 930.969 323.906 930.969 324.281C930.969 324.51 930.958 324.76 930.938 325.031C930.917 325.302 930.885 325.562 930.844 325.812C930.677 326.75 930.51 327.792 930.344 328.938C930.198 330.062 930.062 331.219 929.938 332.406C929.812 333.573 929.708 334.729 929.625 335.875C929.562 337 929.531 338.031 929.531 338.969C929.531 340.323 929.562 341.75 929.625 343.25C929.708 344.75 929.854 346.24 930.062 347.719C930.292 349.177 930.604 350.573 931 351.906C931.396 353.24 931.927 354.417 932.594 355.438C933.26 356.458 934.073 357.271 935.031 357.875C936.01 358.479 937.167 358.781 938.5 358.781C940.083 358.781 941.531 358.573 942.844 358.156C944.177 357.74 945.323 357.135 946.281 356.344C947.24 355.531 947.99 354.552 948.531 353.406C949.094 352.26 949.406 350.958 949.469 349.5L950.219 332.25C950.323 330.062 950.5 328.219 950.75 326.719C951 325.198 951.323 323.979 951.719 323.062C952.115 322.146 952.583 321.49 953.125 321.094C953.667 320.677 954.271 320.469 954.938 320.469C955.625 320.469 956.177 320.844 956.594 321.594C957.01 322.323 957.219 323.219 957.219 324.281C957.219 324.531 957.125 325.177 956.938 326.219C956.75 327.26 956.531 328.594 956.281 330.219C956.052 331.823 955.844 333.656 955.656 335.719C955.469 337.76 955.375 339.906 955.375 342.156C955.375 343.302 955.385 344.5 955.406 345.75C955.427 347 955.448 348.271 955.469 349.562C955.51 350.833 955.542 352.115 955.562 353.406C955.604 354.698 955.625 355.948 955.625 357.156C955.625 357.781 955.51 358.323 955.281 358.781C955.052 359.24 954.76 359.625 954.406 359.938C954.052 360.25 953.646 360.49 953.188 360.656C952.75 360.802 952.302 360.875 951.844 360.875C951.615 360.875 951.406 360.792 951.219 360.625C951.031 360.438 950.854 360.229 950.688 360C950.542 359.75 950.406 359.5 950.281 359.25C950.177 359 950.083 358.792 950 358.625C949.25 359.396 948.448 360.104 947.594 360.75C946.74 361.396 945.802 361.958 944.781 362.438C943.76 362.917 942.646 363.292 941.438 363.562C940.25 363.833 938.938 363.969 937.5 363.969ZM967.75 357.469C967.75 356.99 967.802 356.5 967.906 356C968.01 355.5 968.062 355.021 968.062 354.562C968.062 350 968.083 346.156 968.125 343.031C968.167 339.885 968.208 337.271 968.25 335.188C968.312 333.104 968.365 331.448 968.406 330.219C968.448 328.969 968.469 327.958 968.469 327.188C968.469 326.25 968.552 325.354 968.719 324.5C968.906 323.646 969.156 322.896 969.469 322.25C969.781 321.583 970.156 321.062 970.594 320.688C971.031 320.292 971.521 320.094 972.062 320.094C972.521 320.094 972.917 320.208 973.25 320.438C973.583 320.646 973.865 320.917 974.094 321.25C974.323 321.583 974.49 321.958 974.594 322.375C974.719 322.792 974.781 323.198 974.781 323.594V323.75C974.865 324.021 974.938 324.354 975 324.75C975.062 325.167 975.25 325.781 975.562 326.594C975.896 327.385 976.302 328.281 976.781 329.281C977.26 330.281 977.781 331.333 978.344 332.438C978.927 333.542 979.49 334.615 980.031 335.656C980.573 336.698 981.073 337.656 981.531 338.531C982.01 339.406 982.385 340.115 982.656 340.656C982.823 341.01 983.031 341.458 983.281 342C983.552 342.521 983.833 343.073 984.125 343.656C984.417 344.24 984.708 344.823 985 345.406C985.312 345.99 985.594 346.51 985.844 346.969C986.094 347.427 986.302 347.802 986.469 348.094C986.656 348.385 986.781 348.531 986.844 348.531C987.052 348.531 987.292 348.438 987.562 348.25C987.833 348.042 988.094 347.802 988.344 347.531C988.615 347.26 988.844 347 989.031 346.75C989.24 346.5 989.385 346.312 989.469 346.188C989.635 345.917 989.833 345.615 990.062 345.281C990.292 344.927 990.562 344.5 990.875 344C991.208 343.479 991.594 342.865 992.031 342.156C992.469 341.427 993 340.542 993.625 339.5C994.271 338.417 994.99 337.26 995.781 336.031C996.594 334.802 997.406 333.562 998.219 332.312C999.031 331.042 999.802 329.792 1000.53 328.562C1001.28 327.333 1001.91 326.188 1002.41 325.125C1002.57 324.75 1002.74 324.344 1002.91 323.906C1003.07 323.469 1003.27 323.042 1003.5 322.625C1003.62 322.271 1003.76 321.938 1003.91 321.625C1004.07 321.292 1004.26 321.01 1004.47 320.781C1004.7 320.531 1004.95 320.333 1005.22 320.188C1005.51 320.042 1005.85 319.969 1006.25 319.969C1007.31 319.969 1008.15 320.281 1008.75 320.906C1009.38 321.51 1009.69 322.344 1009.69 323.406C1009.69 329.677 1009.58 336.042 1009.38 342.5C1009.19 348.958 1009.09 355.479 1009.09 362.062C1009.09 362.479 1008.99 362.812 1008.78 363.062C1008.59 363.333 1008.36 363.542 1008.09 363.688C1007.84 363.833 1007.59 363.938 1007.34 364C1007.09 364.062 1006.91 364.094 1006.78 364.094C1006.72 364.094 1006.46 364.042 1006 363.938C1005.56 363.854 1005.07 363.688 1004.53 363.438C1004.01 363.188 1003.53 362.844 1003.09 362.406C1002.68 361.948 1002.47 361.354 1002.47 360.625C1002.47 360.125 1002.53 359.615 1002.66 359.094C1002.78 358.552 1002.92 358.021 1003.06 357.5C1003.23 356.979 1003.39 356.469 1003.53 355.969C1003.68 355.448 1003.77 354.938 1003.81 354.438V338.688C1003.81 337.917 1003.8 337.115 1003.78 336.281C1003.78 335.427 1003.76 334.573 1003.72 333.719C1002.91 334.781 1002.11 335.948 1001.34 337.219C1000.59 338.469 999.833 339.76 999.062 341.094C998.312 342.427 997.562 343.76 996.812 345.094C996.062 346.427 995.302 347.708 994.531 348.938C993.76 350.146 992.958 351.271 992.125 352.312C991.312 353.333 990.469 354.208 989.594 354.938C989.49 355.021 989.375 355.125 989.25 355.25C989.146 355.354 988.99 355.458 988.781 355.562C988.573 355.667 988.302 355.76 987.969 355.844C987.635 355.906 987.198 355.938 986.656 355.938C986.198 355.938 985.688 355.708 985.125 355.25C984.583 354.792 984.021 354.198 983.438 353.469C982.854 352.74 982.271 351.927 981.688 351.031C981.104 350.135 980.562 349.26 980.062 348.406C979.562 347.531 979.115 346.729 978.719 346C978.323 345.25 978.021 344.656 977.812 344.219L973.719 335.844C973.677 336.885 973.646 338.083 973.625 339.438C973.604 340.771 973.594 342.292 973.594 344V355.281C973.656 355.698 973.771 356.167 973.938 356.688C974.104 357.208 974.188 357.708 974.188 358.188C974.188 359.562 974 360.677 973.625 361.531C973.271 362.365 972.625 362.781 971.688 362.781C970.75 362.781 970.01 362.646 969.469 362.375C968.948 362.104 968.562 361.729 968.312 361.25C968.062 360.771 967.906 360.208 967.844 359.562C967.781 358.917 967.75 358.219 967.75 357.469Z" fill="black"/>
</svg>
