<svg width="1230" height="264" viewBox="0 0 1230 264" fill="none" xmlns="http://www.w3.org/2000/svg">
<path d="M10.6075 232.161C6.85067 232.161 4.41979 229.729 3.31484 224.864C2.20989 222.432 1.65742 218.01 1.65742 211.598C1.65742 192.362 1.43643 175.226 0.994453 160.191C0.331484 138.523 0 115.638 0 91.5377V18.5729C0 16.5829 0.883957 14.7035 2.65187 12.9347C4.64078 10.9447 6.62968 9.94976 8.61859 9.94976L46.7393 10.2814C53.8109 10.5025 63.0925 10.6131 74.5839 10.6131C91.1581 10.6131 103.975 10.5025 113.036 10.2814L125.301 9.94976C138.56 9.50754 149.499 9.28643 158.118 9.28643C172.04 9.28643 185.3 11.2764 197.896 15.2563C212.702 19.6784 224.746 27.3065 234.028 38.1407C244.414 49.8593 249.607 65.6683 249.607 85.5678C249.607 119.176 241.099 143.497 224.083 158.533C209.056 172.683 186.626 179.759 156.792 179.759H111.379C111.6 184.844 111.71 190.261 111.71 196.01C111.71 198 111.6 200.432 111.379 203.307C111.379 205.96 111.379 209.608 111.379 214.251C111.379 221.548 109.832 226.191 106.738 228.181C104.307 230.171 99.7767 231.166 93.147 231.166C83.4235 231.166 76.6833 231.276 72.9265 231.497C57.6782 231.497 45.5238 231.719 36.4632 232.161H10.6075ZM129.279 139.96C133.92 139.96 137.345 135.538 139.555 126.693C141.323 120.724 142.649 111.879 143.533 100.161C143.975 93.7487 144.196 86.5628 144.196 78.603V74.9548C144.196 71.4171 143.643 66.1106 142.538 59.0352C141.654 55.0553 140.66 51.9598 139.555 49.7488C138.45 47.3166 137.013 45.3266 135.245 43.7789C133.478 41.7889 131.489 40.794 129.279 40.794C128.174 40.794 127.179 41.2362 126.295 42.1206C125.632 43.005 124.969 44.1105 124.307 45.4372C121.876 49.4171 119.666 58.2613 117.677 71.9698C117.014 75.9497 116.461 81.9196 116.019 89.8794C114.914 102.04 114.362 118.291 114.362 138.633C114.362 138.633 114.472 138.744 114.693 138.965C114.914 139.186 115.356 139.407 116.019 139.628L119.997 139.96H129.279Z" fill="black"/>
<path d="M288.016 232.824C286.469 232.824 285.032 232.271 283.706 231.166C282.38 229.839 281.386 228.181 280.723 226.191C279.839 222.211 279.176 217.789 278.734 212.925C278.513 211.377 278.403 209.276 278.403 206.623V202.312L278.734 161.186C278.734 147.256 279.066 133.548 279.728 120.06V15.2563C279.728 13.0452 281.165 11.9397 284.038 11.9397C299.286 11.9397 310.667 11.8292 318.181 11.608H351.329C351.992 11.608 352.544 11.4975 352.986 11.2764C353.428 11.0553 353.981 10.9447 354.644 10.9447C357.517 10.5025 361.495 10.392 366.577 10.6131C370.334 10.6131 374.312 10.9447 378.511 11.608C379.837 12.4925 380.831 12.7136 381.494 12.2714C381.936 12.2714 382.82 12.0503 384.146 11.608C387.461 11.608 390.002 11.8292 391.77 12.2714C393.759 12.7136 395.306 13.7085 396.411 15.2563C397.516 17.2462 398.4 19.6784 399.063 22.5528C399.284 24.7638 399.394 29.407 399.394 36.4824V106.131C399.173 107.899 399.063 111.879 399.063 118.07C399.063 124.704 398.842 129.899 398.4 133.658L398.068 148.583C397.847 151.899 397.737 156.101 397.737 161.186L397.405 166.492V187.719C397.405 200.985 396.853 212.261 395.748 221.548C395.748 224.643 394.974 227.739 393.428 230.834C389.45 230.834 383.704 231.055 376.19 231.497C372.655 231.497 370.334 231.719 369.229 232.161H364.92C363.373 232.161 362.599 231.94 362.599 231.497C360.832 231.055 359.837 230.834 359.616 230.834L356.964 232.161H326.468C326.247 232.382 324.479 232.492 321.164 232.492H296.303L288.016 232.824Z" fill="black"/>
<path d="M533.469 240.121C516.232 240.121 500.763 236.141 487.061 228.181C471.592 220.663 458.885 208.281 448.941 191.035C437.891 171.578 432.367 148.583 432.367 122.05C432.367 103.256 435.681 86.3417 442.311 71.3065C448.941 56.2714 458.443 43.5578 470.819 33.1658C482.973 22.995 497.227 15.2563 513.58 9.94976C529.933 4.64322 547.723 1.98994 566.949 1.98994C595.236 1.98994 624.406 9.17587 654.461 23.5477L641.533 79.9296C639.986 79.4874 638.108 78.9347 635.898 78.2713C633.909 77.608 631.588 76.9447 628.937 76.2814C616.782 73.1859 607.832 71.196 602.086 70.3116C596.783 69.4271 592.473 68.9849 589.158 68.9849C575.236 68.9849 564.629 72.7437 557.336 80.2613C548.717 88.8844 544.408 103.367 544.408 123.709C544.408 142.281 547.17 155.548 552.695 163.508C557.336 171.025 564.187 174.784 573.247 174.784C578.993 174.784 585.623 173.236 593.136 170.141C593.136 166.603 592.915 161.296 592.473 154.221L592.142 146.925C591.921 141.839 591.81 134.322 591.81 124.372V115.417C591.81 113.427 592.142 112.101 592.805 111.437C593.468 110.553 594.683 110.111 596.451 110.111C597.114 110.332 598.992 110.442 602.086 110.442H637.224C647.61 110.442 654.461 110.332 657.776 110.111C663.742 110.111 667.61 110.221 669.378 110.442C672.25 111.106 674.129 112.211 675.013 113.759C676.118 115.085 676.67 117.296 676.67 120.392C676.67 121.497 676.781 122.492 677.002 123.377V176.774C676.781 177.658 676.56 178.653 676.339 179.759C676.118 180.864 676.007 182.08 676.007 183.407V185.065C676.007 198.995 675.786 208.724 675.344 214.251C674.902 223.317 674.129 229.065 673.024 231.497C667.278 231.497 662.969 231.719 660.096 232.161L652.803 232.492H651.809C649.82 232.492 648.715 232.382 648.494 232.161C648.273 231.94 648.052 231.829 647.831 231.829C647.831 231.608 647.831 231.497 647.831 231.497H646.837C646.616 231.719 646.395 231.94 646.174 232.161C646.174 232.382 646.174 232.492 646.174 232.492H604.075C603.412 232.714 602.528 232.824 601.423 232.824C600.539 232.824 599.766 232.161 599.103 230.834C597.556 226.854 596.672 222.1 596.451 216.573C596.009 213.92 595.567 210.05 595.125 204.965C593.136 216.241 586.175 224.975 574.242 231.166C563.413 237.136 549.822 240.121 533.469 240.121Z" fill="black"/>
<path d="M807.979 240.121C790.742 240.121 775.273 236.141 761.572 228.181C746.102 220.663 733.395 208.281 723.451 191.035C712.401 171.578 706.877 148.583 706.877 122.05C706.877 103.256 710.192 86.3417 716.821 71.3065C723.451 56.2714 732.953 43.5578 745.329 33.1658C757.483 22.995 771.737 15.2563 788.09 9.94976C804.443 4.64322 822.233 1.98994 841.459 1.98994C869.746 1.98994 898.916 9.17587 928.971 23.5477L916.043 79.9296C914.496 79.4874 912.618 78.9347 910.408 78.2713C908.419 77.608 906.099 76.9447 903.447 76.2814C891.292 73.1859 882.342 71.196 876.596 70.3116C871.293 69.4271 866.983 68.9849 863.669 68.9849C849.746 68.9849 839.139 72.7437 831.846 80.2613C823.228 88.8844 818.918 103.367 818.918 123.709C818.918 142.281 821.681 155.548 827.205 163.508C831.846 171.025 838.697 174.784 847.757 174.784C853.503 174.784 860.133 173.236 867.646 170.141C867.646 166.603 867.425 161.296 866.983 154.221L866.652 146.925C866.431 141.839 866.321 134.322 866.321 124.372V115.417C866.321 113.427 866.652 112.101 867.315 111.437C867.978 110.553 869.193 110.111 870.961 110.111C871.624 110.332 873.503 110.442 876.596 110.442H911.734C922.12 110.442 928.971 110.332 932.286 110.111C938.253 110.111 942.12 110.221 943.888 110.442C946.761 111.106 948.639 112.211 949.523 113.759C950.628 115.085 951.18 117.296 951.18 120.392C951.18 121.497 951.291 122.492 951.512 123.377V176.774C951.291 177.658 951.07 178.653 950.849 179.759C950.628 180.864 950.517 182.08 950.517 183.407V185.065C950.517 198.995 950.296 208.724 949.854 214.251C949.412 223.317 948.639 229.065 947.534 231.497C941.788 231.497 937.479 231.719 934.606 232.161L927.314 232.492H926.319C924.33 232.492 923.225 232.382 923.004 232.161C922.783 231.94 922.562 231.829 922.341 231.829C922.341 231.608 922.341 231.497 922.341 231.497H921.347C921.126 231.719 920.905 231.94 920.684 232.161C920.684 232.382 920.684 232.492 920.684 232.492H878.585C877.922 232.714 877.039 232.824 875.934 232.824C875.05 232.824 874.276 232.161 873.613 230.834C872.066 226.854 871.182 222.1 870.961 216.573C870.519 213.92 870.077 210.05 869.635 204.965C867.646 216.241 860.685 224.975 848.752 231.166C837.923 237.136 824.333 240.121 807.979 240.121Z" fill="black"/>
<path d="M1118.95 262.01C1118.95 262.01 1118.73 262.01 1118.29 262.01C1118.07 262.01 1117.85 262.121 1117.63 262.342L1116.63 262.673C1115.97 262.673 1115.64 262.452 1115.64 262.01C1114.75 261.568 1114.2 260.905 1113.98 260.02C1106.25 258.693 1101.27 257.588 1099.06 256.704L1087.46 253.387H1085.8C1084.7 253.387 1083.82 253.166 1083.15 252.724C1081.16 252.724 1079.51 252.503 1078.18 252.06C1076.41 251.839 1073.54 251.065 1069.56 249.739C1065.58 248.412 1062.71 247.417 1060.94 246.754C1057.41 245.648 1052.32 243.769 1045.69 241.116C1042.6 239.789 1040.28 238.905 1038.73 238.462L1031.11 233.819C1029.34 232.492 1028.46 231.166 1028.46 229.839C1028.46 225.638 1029.45 221.216 1031.44 216.573C1032.1 215.025 1032.99 213.146 1034.09 210.935C1035.42 208.724 1036.63 206.181 1037.74 203.307C1038.18 201.98 1039.4 199.99 1041.39 197.337C1046.69 188.492 1049.56 183.628 1050 182.744C1050.89 180.312 1051.33 178.1 1051.33 176.111C1051.33 172.794 1049.56 169.367 1046.03 165.829C1042.71 162.513 1041.05 159.307 1041.05 156.211C1039.95 156.211 1039.4 156.322 1039.4 156.543H1038.4C1037.96 156.1 1037.74 155.658 1037.74 155.216C1030.67 146.372 1023.49 135.648 1016.19 123.045C1006.91 108.452 999.398 95.1859 993.652 83.2462C991.884 80.593 989.785 75.8392 987.354 68.9849C984.481 63.0151 982.05 56.9347 980.061 50.7437C977.63 43.8894 976.415 39.4673 976.415 37.4774C976.415 35.2663 978.846 32.392 983.707 28.8543C985.696 27.5276 988.017 26.201 990.668 24.8744C993.32 23.5477 995.309 22.5528 996.635 21.8894C997.74 21.6683 1002.38 20.4523 1010.56 18.2412L1015.2 16.5829C1016.08 15.9196 1017.08 15.5879 1018.18 15.5879C1019.51 15.5879 1021.61 15.1457 1024.48 14.2613C1030.89 12.9347 1034.65 12.0503 1035.75 11.608L1047.68 8.95478C1054.31 6.74372 1058.18 5.52764 1059.29 5.30652L1059.95 4.97487H1061.61C1066.25 4.97487 1069.34 6.0804 1070.89 8.29145C1072.21 9.61809 1074.42 12.7136 1077.52 17.5779C1077.96 18.9045 1078.73 20.4523 1079.84 22.2211C1081.16 23.9899 1082.05 25.0955 1082.49 25.5377L1085.14 29.1859L1087.46 31.8392C1088.35 32.9447 1089.23 34.2714 1090.11 35.8191C1091 37.3668 1091.99 39.0251 1093.1 40.794C1098.84 50.9648 1103.26 58.1508 1106.36 62.3518C1108.35 65.2261 1110 66.6633 1111.33 66.6633C1111.99 66.6633 1113.1 65.4472 1114.64 63.0151C1116.63 59.9196 1120.28 52.8442 1125.58 41.7889C1128.46 34.7136 1131.88 26.6432 1135.86 17.5779C1137.85 13.598 1138.95 11.1658 1139.17 10.2814C1140.06 6.30151 1141.05 3.7588 1142.16 2.65327C1143.26 0.884424 1145.25 0 1148.12 0C1155.19 0 1164.48 1.43719 1175.97 4.31156C1187.24 7.62814 1198.07 11.9397 1208.45 17.2462C1219.06 22.995 1226.24 28.3015 1230 33.1658C1230 39.1357 1228.56 44.6633 1225.69 49.7488L1195.19 117.075L1165.36 184.734L1164.03 185.065C1163.81 185.065 1163.48 185.286 1163.04 185.729C1148.45 214.251 1135.08 239.9 1122.93 262.673C1122.49 263.558 1121.16 264 1118.95 264V262.01Z" fill="black"/>
</svg>
